<?xml version="1.0" encoding="us-ascii" standalone="no"?><svg xmlns="http://www.w3.org/2000/svg" xmlns:xlink="http://www.w3.org/1999/xlink" contentStyleType="text/css" height="746px" preserveAspectRatio="none" style="width:1218px;height:746px;background:#FFFFFF;" version="1.1" viewBox="0 0 1218 746" width="1218px" zoomAndPan="magnify"><defs/><g><!--cluster fixorders--><g id="cluster_fixorders"><path d="M291.5,6 L356.5,6 A3.75,3.75 0 0 1 359,8.5 L366,29.6094 L472.5,29.6094 A2.5,2.5 0 0 1 475,32.1094 L475,121.5 A2.5,2.5 0 0 1 472.5,124 L291.5,124 A2.5,2.5 0 0 1 289,121.5 L289,8.5 A2.5,2.5 0 0 1 291.5,6 " fill="none" style="stroke:#000000;stroke-width:1.5;"/><line style="stroke:#000000;stroke-width:1.5;" x1="289" x2="366" y1="29.6094" y2="29.6094"/><text fill="#000000" font-family="sans-serif" font-size="14" font-weight="bold" lengthAdjust="spacing" textLength="64" x="293" y="22.5332">fixorders</text></g><!--cluster fixordersutils--><g id="cluster_fixordersutils"><path d="M8.5,174 L103.5,174 A3.75,3.75 0 0 1 106,176.5 L113,197.6094 L495.5,197.6094 A2.5,2.5 0 0 1 498,200.1094 L498,737 A2.5,2.5 0 0 1 495.5,739.5 L8.5,739.5 A2.5,2.5 0 0 1 6,737 L6,176.5 A2.5,2.5 0 0 1 8.5,174 " fill="none" style="stroke:#000000;stroke-width:1.5;"/><line style="stroke:#000000;stroke-width:1.5;" x1="6" x2="113" y1="197.6094" y2="197.6094"/><text fill="#000000" font-family="sans-serif" font-size="14" font-weight="bold" lengthAdjust="spacing" textLength="94" x="10" y="190.5332">fixordersutils</text></g><!--cluster External--><g id="cluster_External"><path d="M636.5,558 L695.5,558 A3.75,3.75 0 0 1 698,560.5 L705,581.6094 L944.5,581.6094 A2.5,2.5 0 0 1 947,584.1094 L947,719.5 A2.5,2.5 0 0 1 944.5,722 L636.5,722 A2.5,2.5 0 0 1 634,719.5 L634,560.5 A2.5,2.5 0 0 1 636.5,558 " fill="none" style="stroke:#000000;stroke-width:1.5;"/><line style="stroke:#000000;stroke-width:1.5;" x1="634" x2="705" y1="581.6094" y2="581.6094"/><text fill="#000000" font-family="sans-serif" font-size="14" font-weight="bold" lengthAdjust="spacing" textLength="58" x="638" y="574.5332">External</text></g><!--class FixKonfirmatSkant2--><g id="elem_FixKonfirmatSkant2"><rect codeLine="4" fill="#F1F1F1" height="65.6094" id="FixKonfirmatSkant2" rx="2.5" ry="2.5" style="stroke:#181818;stroke-width:0.5;" width="154" x="305" y="42"/><ellipse cx="320" cy="58" fill="#ADD1B2" rx="11" ry="11" style="stroke:#181818;stroke-width:1.0;"/><path d="M322.7656,53.875 Q322.9219,53.6563 323.1094,53.5469 Q323.2969,53.4375 323.5156,53.4375 Q323.8906,53.4375 324.125,53.6953 Q324.3594,53.9531 324.3594,54.5625 L324.3594,56.0156 Q324.3594,56.625 324.125,56.8906 Q323.8906,57.1563 323.5156,57.1563 Q323.1719,57.1563 322.9688,56.9531 Q322.7656,56.7656 322.6563,56.25 Q322.6094,55.8906 322.4219,55.7031 Q322.0938,55.3281 321.4844,55.1094 Q320.875,54.8906 320.25,54.8906 Q319.4844,54.8906 318.8516,55.2188 Q318.2188,55.5469 317.7266,56.2969 Q317.2344,57.0469 317.2344,58.0781 L317.2344,59.1719 Q317.2344,60.4063 318.125,61.2266 Q319.0156,62.0469 320.6094,62.0469 Q321.5469,62.0469 322.2031,61.7969 Q322.5938,61.6406 323.0156,61.2031 Q323.2813,60.9375 323.4297,60.8594 Q323.5781,60.7813 323.7813,60.7813 Q324.1094,60.7813 324.3672,61.0391 Q324.625,61.2969 324.625,61.6406 Q324.625,61.9844 324.2813,62.3906 Q323.7813,62.9688 322.9844,63.2969 Q321.9063,63.75 320.6094,63.75 Q319.0938,63.75 317.8906,63.125 Q316.9063,62.625 316.2188,61.5547 Q315.5313,60.4844 315.5313,59.2031 L315.5313,58.0469 Q315.5313,56.7188 316.1484,55.5703 Q316.7656,54.4219 317.8594,53.8047 Q318.9531,53.1875 320.1875,53.1875 Q320.9219,53.1875 321.5703,53.3516 Q322.2188,53.5156 322.7656,53.875 Z " fill="#000000"/><text fill="#000000" font-family="sans-serif" font-size="14" lengthAdjust="spacing" textLength="122" x="334" y="63.7285">FixKonfirmatSkant2</text><line style="stroke:#181818;stroke-width:0.5;" x1="306" x2="458" y1="74" y2="74"/><line style="stroke:#181818;stroke-width:0.5;" x1="306" x2="458" y1="82" y2="82"/><ellipse cx="316" cy="96.3047" fill="#84BE84" rx="3" ry="3" style="stroke:#038048;stroke-width:1.0;"/><text fill="#000000" font-family="sans-serif" font-size="14" lengthAdjust="spacing" textLength="40" x="325" y="100.5332">main()</text></g><!--class Properties--><g id="elem_Properties"><rect codeLine="10" fill="#F1F1F1" height="111.5313" id="Properties" rx="2.5" ry="2.5" style="stroke:#181818;stroke-width:0.5;" width="123" x="36.5" y="594"/><ellipse cx="62.75" cy="615.3516" fill="#ADD1B2" rx="11" ry="11" style="stroke:#181818;stroke-width:1.0;"/><path d="M65.5156,611.2266 Q65.6719,611.0078 65.8594,610.8984 Q66.0469,610.7891 66.2656,610.7891 Q66.6406,610.7891 66.875,611.0469 Q67.1094,611.3047 67.1094,611.9141 L67.1094,613.3672 Q67.1094,613.9766 66.875,614.2422 Q66.6406,614.5078 66.2656,614.5078 Q65.9219,614.5078 65.7188,614.3047 Q65.5156,614.1172 65.4063,613.6016 Q65.3594,613.2422 65.1719,613.0547 Q64.8438,612.6797 64.2344,612.4609 Q63.625,612.2422 63,612.2422 Q62.2344,612.2422 61.6016,612.5703 Q60.9688,612.8984 60.4766,613.6484 Q59.9844,614.3984 59.9844,615.4297 L59.9844,616.5234 Q59.9844,617.7578 60.875,618.5781 Q61.7656,619.3984 63.3594,619.3984 Q64.2969,619.3984 64.9531,619.1484 Q65.3438,618.9922 65.7656,618.5547 Q66.0313,618.2891 66.1797,618.2109 Q66.3281,618.1328 66.5313,618.1328 Q66.8594,618.1328 67.1172,618.3906 Q67.375,618.6484 67.375,618.9922 Q67.375,619.3359 67.0313,619.7422 Q66.5313,620.3203 65.7344,620.6484 Q64.6563,621.1016 63.3594,621.1016 Q61.8438,621.1016 60.6406,620.4766 Q59.6563,619.9766 58.9688,618.9063 Q58.2813,617.8359 58.2813,616.5547 L58.2813,615.3984 Q58.2813,614.0703 58.8984,612.9219 Q59.5156,611.7734 60.6094,611.1563 Q61.7031,610.5391 62.9375,610.5391 Q63.6719,610.5391 64.3203,610.7031 Q64.9688,610.8672 65.5156,611.2266 Z " fill="#000000"/><text fill="#000000" font-family="sans-serif" font-size="12" font-style="italic" lengthAdjust="spacing" textLength="70" x="77.25" y="611.457">&#171;Properties&#187;</text><text fill="#000000" font-family="sans-serif" font-size="14" lengthAdjust="spacing" textLength="65" x="79.75" y="628.627">Properties</text><line style="stroke:#181818;stroke-width:0.5;" x1="37.5" x2="158.5" y1="636.7031" y2="636.7031"/><ellipse cx="47.5" cy="651.0078" fill="none" rx="3" ry="3" style="stroke:#038048;stroke-width:1.0;"/><text fill="#000000" font-family="sans-serif" font-size="14" lengthAdjust="spacing" textLength="48" x="56.5" y="655.2363">Params</text><ellipse cx="47.5" cy="668.6172" fill="none" rx="3" ry="3" style="stroke:#038048;stroke-width:1.0;"/><text fill="#000000" font-family="sans-serif" font-size="14" lengthAdjust="spacing" textLength="56" x="56.5" y="672.8457">_Params</text><ellipse cx="47.5" cy="686.2266" fill="none" rx="3" ry="3" style="stroke:#038048;stroke-width:1.0;"/><text fill="#000000" font-family="sans-serif" font-size="14" lengthAdjust="spacing" textLength="97" x="56.5" y="690.4551">FixParsAdapter</text><line style="stroke:#181818;stroke-width:0.5;" x1="37.5" x2="158.5" y1="697.5313" y2="697.5313"/></g><!--class PositionUtilities--><g id="elem_PositionUtilities"><rect codeLine="16" fill="#F1F1F1" height="93.9219" id="PositionUtilities" rx="2.5" ry="2.5" style="stroke:#181818;stroke-width:0.5;" width="192" x="286" y="210"/><ellipse cx="330.75" cy="231.3516" fill="#ADD1B2" rx="11" ry="11" style="stroke:#181818;stroke-width:1.0;"/><path d="M333.5156,227.2266 Q333.6719,227.0078 333.8594,226.8984 Q334.0469,226.7891 334.2656,226.7891 Q334.6406,226.7891 334.875,227.0469 Q335.1094,227.3047 335.1094,227.9141 L335.1094,229.3672 Q335.1094,229.9766 334.875,230.2422 Q334.6406,230.5078 334.2656,230.5078 Q333.9219,230.5078 333.7188,230.3047 Q333.5156,230.1172 333.4063,229.6016 Q333.3594,229.2422 333.1719,229.0547 Q332.8438,228.6797 332.2344,228.4609 Q331.625,228.2422 331,228.2422 Q330.2344,228.2422 329.6016,228.5703 Q328.9688,228.8984 328.4766,229.6484 Q327.9844,230.3984 327.9844,231.4297 L327.9844,232.5234 Q327.9844,233.7578 328.875,234.5781 Q329.7656,235.3984 331.3594,235.3984 Q332.2969,235.3984 332.9531,235.1484 Q333.3438,234.9922 333.7656,234.5547 Q334.0313,234.2891 334.1797,234.2109 Q334.3281,234.1328 334.5313,234.1328 Q334.8594,234.1328 335.1172,234.3906 Q335.375,234.6484 335.375,234.9922 Q335.375,235.3359 335.0313,235.7422 Q334.5313,236.3203 333.7344,236.6484 Q332.6563,237.1016 331.3594,237.1016 Q329.8438,237.1016 328.6406,236.4766 Q327.6563,235.9766 326.9688,234.9063 Q326.2813,233.8359 326.2813,232.5547 L326.2813,231.3984 Q326.2813,230.0703 326.8984,228.9219 Q327.5156,227.7734 328.6094,227.1563 Q329.7031,226.5391 330.9375,226.5391 Q331.6719,226.5391 332.3203,226.7031 Q332.9688,226.8672 333.5156,227.2266 Z " fill="#000000"/><text fill="#000000" font-family="sans-serif" font-size="12" font-style="italic" lengthAdjust="spacing" textLength="54" x="371.25" y="227.457">&#171;Utilities&#187;</text><text fill="#000000" font-family="sans-serif" font-size="14" lengthAdjust="spacing" textLength="94" x="351.25" y="244.627">PositionUtilities</text><line style="stroke:#181818;stroke-width:0.5;" x1="287" x2="477" y1="252.7031" y2="252.7031"/><line style="stroke:#181818;stroke-width:0.5;" x1="287" x2="477" y1="260.7031" y2="260.7031"/><ellipse cx="297" cy="275.0078" fill="#84BE84" rx="3" ry="3" style="stroke:#038048;stroke-width:1.0;"/><text fill="#000000" font-family="sans-serif" font-size="14" lengthAdjust="spacing" textLength="166" x="306" y="279.2363">calculate_positions_fixes()</text><ellipse cx="297" cy="292.6172" fill="#84BE84" rx="3" ry="3" style="stroke:#038048;stroke-width:1.0;"/><text fill="#000000" font-family="sans-serif" font-size="14" lengthAdjust="spacing" textLength="144" x="306" y="296.8457">calculate_position_fix()</text></g><!--class Builders--><g id="elem_Builders"><rect codeLine="21" fill="#F1F1F1" height="111.5313" id="Builders" rx="2.5" ry="2.5" style="stroke:#181818;stroke-width:0.5;" width="202" x="280" y="382"/><ellipse cx="349.25" cy="403.3516" fill="#ADD1B2" rx="11" ry="11" style="stroke:#181818;stroke-width:1.0;"/><path d="M352.0156,399.2266 Q352.1719,399.0078 352.3594,398.8984 Q352.5469,398.7891 352.7656,398.7891 Q353.1406,398.7891 353.375,399.0469 Q353.6094,399.3047 353.6094,399.9141 L353.6094,401.3672 Q353.6094,401.9766 353.375,402.2422 Q353.1406,402.5078 352.7656,402.5078 Q352.4219,402.5078 352.2188,402.3047 Q352.0156,402.1172 351.9063,401.6016 Q351.8594,401.2422 351.6719,401.0547 Q351.3438,400.6797 350.7344,400.4609 Q350.125,400.2422 349.5,400.2422 Q348.7344,400.2422 348.1016,400.5703 Q347.4688,400.8984 346.9766,401.6484 Q346.4844,402.3984 346.4844,403.4297 L346.4844,404.5234 Q346.4844,405.7578 347.375,406.5781 Q348.2656,407.3984 349.8594,407.3984 Q350.7969,407.3984 351.4531,407.1484 Q351.8438,406.9922 352.2656,406.5547 Q352.5313,406.2891 352.6797,406.2109 Q352.8281,406.1328 353.0313,406.1328 Q353.3594,406.1328 353.6172,406.3906 Q353.875,406.6484 353.875,406.9922 Q353.875,407.3359 353.5313,407.7422 Q353.0313,408.3203 352.2344,408.6484 Q351.1563,409.1016 349.8594,409.1016 Q348.3438,409.1016 347.1406,408.4766 Q346.1563,407.9766 345.4688,406.9063 Q344.7813,405.8359 344.7813,404.5547 L344.7813,403.3984 Q344.7813,402.0703 345.3984,400.9219 Q346.0156,399.7734 347.1094,399.1563 Q348.2031,398.5391 349.4375,398.5391 Q350.1719,398.5391 350.8203,398.7031 Q351.4688,398.8672 352.0156,399.2266 Z " fill="#000000"/><text fill="#000000" font-family="sans-serif" font-size="12" font-style="italic" lengthAdjust="spacing" textLength="59" x="367.75" y="399.457">&#171;Builders&#187;</text><text fill="#000000" font-family="sans-serif" font-size="14" lengthAdjust="spacing" textLength="51" x="371.75" y="416.627">Builders</text><line style="stroke:#181818;stroke-width:0.5;" x1="281" x2="481" y1="424.7031" y2="424.7031"/><line style="stroke:#181818;stroke-width:0.5;" x1="281" x2="481" y1="432.7031" y2="432.7031"/><ellipse cx="291" cy="447.0078" fill="#84BE84" rx="3" ry="3" style="stroke:#038048;stroke-width:1.0;"/><text fill="#000000" font-family="sans-serif" font-size="14" lengthAdjust="spacing" textLength="175" x="300" y="451.2363">build_group_second_fixes()</text><ellipse cx="291" cy="464.6172" fill="#84BE84" rx="3" ry="3" style="stroke:#038048;stroke-width:1.0;"/><text fill="#000000" font-family="sans-serif" font-size="14" lengthAdjust="spacing" textLength="156" x="300" y="468.8457">build_group_chet_fixes()</text><ellipse cx="291" cy="482.2266" fill="#84BE84" rx="3" ry="3" style="stroke:#038048;stroke-width:1.0;"/><text fill="#000000" font-family="sans-serif" font-size="14" lengthAdjust="spacing" textLength="176" x="300" y="486.4551">build_group_notchet_fixes()</text></g><!--class HolePosition--><g id="elem_HolePosition"><rect codeLine="27" fill="#F1F1F1" height="146.75" id="HolePosition" rx="2.5" ry="2.5" style="stroke:#181818;stroke-width:0.5;" width="110" x="216" y="576.5"/><ellipse cx="231" cy="597.8516" fill="#ADD1B2" rx="11" ry="11" style="stroke:#181818;stroke-width:1.0;"/><path d="M233.7656,593.7266 Q233.9219,593.5078 234.1094,593.3984 Q234.2969,593.2891 234.5156,593.2891 Q234.8906,593.2891 235.125,593.5469 Q235.3594,593.8047 235.3594,594.4141 L235.3594,595.8672 Q235.3594,596.4766 235.125,596.7422 Q234.8906,597.0078 234.5156,597.0078 Q234.1719,597.0078 233.9688,596.8047 Q233.7656,596.6172 233.6563,596.1016 Q233.6094,595.7422 233.4219,595.5547 Q233.0938,595.1797 232.4844,594.9609 Q231.875,594.7422 231.25,594.7422 Q230.4844,594.7422 229.8516,595.0703 Q229.2188,595.3984 228.7266,596.1484 Q228.2344,596.8984 228.2344,597.9297 L228.2344,599.0234 Q228.2344,600.2578 229.125,601.0781 Q230.0156,601.8984 231.6094,601.8984 Q232.5469,601.8984 233.2031,601.6484 Q233.5938,601.4922 234.0156,601.0547 Q234.2813,600.7891 234.4297,600.7109 Q234.5781,600.6328 234.7813,600.6328 Q235.1094,600.6328 235.3672,600.8906 Q235.625,601.1484 235.625,601.4922 Q235.625,601.8359 235.2813,602.2422 Q234.7813,602.8203 233.9844,603.1484 Q232.9063,603.6016 231.6094,603.6016 Q230.0938,603.6016 228.8906,602.9766 Q227.9063,602.4766 227.2188,601.4063 Q226.5313,600.3359 226.5313,599.0547 L226.5313,597.8984 Q226.5313,596.5703 227.1484,595.4219 Q227.7656,594.2734 228.8594,593.6563 Q229.9531,593.0391 231.1875,593.0391 Q231.9219,593.0391 232.5703,593.2031 Q233.2188,593.3672 233.7656,593.7266 Z " fill="#000000"/><text fill="#000000" font-family="sans-serif" font-size="12" font-style="italic" lengthAdjust="spacing" textLength="40" x="264" y="593.957">&#171;Data&#187;</text><text fill="#000000" font-family="sans-serif" font-size="14" lengthAdjust="spacing" textLength="78" x="245" y="611.127">HolePosition</text><line style="stroke:#181818;stroke-width:0.5;" x1="217" x2="325" y1="619.2031" y2="619.2031"/><ellipse cx="227" cy="633.5078" fill="none" rx="3" ry="3" style="stroke:#038048;stroke-width:1.0;"/><text fill="#000000" font-family="sans-serif" font-size="14" lengthAdjust="spacing" textLength="33" x="236" y="637.7363">IDHol</text><ellipse cx="227" cy="651.1172" fill="none" rx="3" ry="3" style="stroke:#038048;stroke-width:1.0;"/><text fill="#000000" font-family="sans-serif" font-size="14" lengthAdjust="spacing" textLength="41" x="236" y="655.3457">IDHold</text><ellipse cx="227" cy="668.7266" fill="none" rx="3" ry="3" style="stroke:#038048;stroke-width:1.0;"/><text fill="#000000" font-family="sans-serif" font-size="14" lengthAdjust="spacing" textLength="28" x="236" y="672.9551">XHol</text><ellipse cx="227" cy="686.3359" fill="none" rx="3" ry="3" style="stroke:#038048;stroke-width:1.0;"/><text fill="#000000" font-family="sans-serif" font-size="14" lengthAdjust="spacing" textLength="29" x="236" y="690.5645">YHol</text><ellipse cx="227" cy="703.9453" fill="none" rx="3" ry="3" style="stroke:#038048;stroke-width:1.0;"/><text fill="#000000" font-family="sans-serif" font-size="14" lengthAdjust="spacing" textLength="28" x="236" y="708.1738">ZHol</text><line style="stroke:#181818;stroke-width:0.5;" x1="217" x2="325" y1="715.25" y2="715.25"/></g><!--class k3--><g id="elem_k3"><rect codeLine="37" fill="#F1F1F1" height="111.5313" id="k3" rx="2.5" ry="2.5" style="stroke:#181818;stroke-width:0.5;" width="87" x="650.5" y="594"/><ellipse cx="665.5" cy="615.3516" fill="#ADD1B2" rx="11" ry="11" style="stroke:#181818;stroke-width:1.0;"/><path d="M668.2656,611.2266 Q668.4219,611.0078 668.6094,610.8984 Q668.7969,610.7891 669.0156,610.7891 Q669.3906,610.7891 669.625,611.0469 Q669.8594,611.3047 669.8594,611.9141 L669.8594,613.3672 Q669.8594,613.9766 669.625,614.2422 Q669.3906,614.5078 669.0156,614.5078 Q668.6719,614.5078 668.4688,614.3047 Q668.2656,614.1172 668.1563,613.6016 Q668.1094,613.2422 667.9219,613.0547 Q667.5938,612.6797 666.9844,612.4609 Q666.375,612.2422 665.75,612.2422 Q664.9844,612.2422 664.3516,612.5703 Q663.7188,612.8984 663.2266,613.6484 Q662.7344,614.3984 662.7344,615.4297 L662.7344,616.5234 Q662.7344,617.7578 663.625,618.5781 Q664.5156,619.3984 666.1094,619.3984 Q667.0469,619.3984 667.7031,619.1484 Q668.0938,618.9922 668.5156,618.5547 Q668.7813,618.2891 668.9297,618.2109 Q669.0781,618.1328 669.2813,618.1328 Q669.6094,618.1328 669.8672,618.3906 Q670.125,618.6484 670.125,618.9922 Q670.125,619.3359 669.7813,619.7422 Q669.2813,620.3203 668.4844,620.6484 Q667.4063,621.1016 666.1094,621.1016 Q664.5938,621.1016 663.3906,620.4766 Q662.4063,619.9766 661.7188,618.9063 Q661.0313,617.8359 661.0313,616.5547 L661.0313,615.3984 Q661.0313,614.0703 661.6484,612.9219 Q662.2656,611.7734 663.3594,611.1563 Q664.4531,610.5391 665.6875,610.5391 Q666.4219,610.5391 667.0703,610.7031 Q667.7188,610.8672 668.2656,611.2266 Z " fill="#000000"/><text fill="#000000" font-family="sans-serif" font-size="12" font-style="italic" lengthAdjust="spacing" textLength="59" x="677.5" y="611.457">&#171;External&#187;</text><text fill="#000000" font-family="sans-serif" font-size="14" lengthAdjust="spacing" textLength="15" x="699.5" y="628.627">k3</text><line style="stroke:#181818;stroke-width:0.5;" x1="651.5" x2="736.5" y1="636.7031" y2="636.7031"/><ellipse cx="661.5" cy="651.0078" fill="none" rx="3" ry="3" style="stroke:#038048;stroke-width:1.0;"/><text fill="#000000" font-family="sans-serif" font-size="14" lengthAdjust="spacing" textLength="22" x="670.5" y="655.2363">Var</text><ellipse cx="661.5" cy="668.6172" fill="none" rx="3" ry="3" style="stroke:#038048;stroke-width:1.0;"/><text fill="#000000" font-family="sans-serif" font-size="14" lengthAdjust="spacing" textLength="56" x="670.5" y="672.8457">VarArray</text><ellipse cx="661.5" cy="686.2266" fill="none" rx="3" ry="3" style="stroke:#038048;stroke-width:1.0;"/><text fill="#000000" font-family="sans-serif" font-size="14" lengthAdjust="spacing" textLength="40" x="670.5" y="690.4551">Group</text><line style="stroke:#181818;stroke-width:0.5;" x1="651.5" x2="736.5" y1="697.5313" y2="697.5313"/></g><!--class DataBase_ACCESS--><g id="elem_DataBase_ACCESS"><rect codeLine="43" fill="#F1F1F1" height="76.3125" id="DataBase_ACCESS" rx="2.5" ry="2.5" style="stroke:#181818;stroke-width:0.5;" width="158" x="773" y="612"/><ellipse cx="788" cy="633.3516" fill="#ADD1B2" rx="11" ry="11" style="stroke:#181818;stroke-width:1.0;"/><path d="M790.7656,629.2266 Q790.9219,629.0078 791.1094,628.8984 Q791.2969,628.7891 791.5156,628.7891 Q791.8906,628.7891 792.125,629.0469 Q792.3594,629.3047 792.3594,629.9141 L792.3594,631.3672 Q792.3594,631.9766 792.125,632.2422 Q791.8906,632.5078 791.5156,632.5078 Q791.1719,632.5078 790.9688,632.3047 Q790.7656,632.1172 790.6563,631.6016 Q790.6094,631.2422 790.4219,631.0547 Q790.0938,630.6797 789.4844,630.4609 Q788.875,630.2422 788.25,630.2422 Q787.4844,630.2422 786.8516,630.5703 Q786.2188,630.8984 785.7266,631.6484 Q785.2344,632.3984 785.2344,633.4297 L785.2344,634.5234 Q785.2344,635.7578 786.125,636.5781 Q787.0156,637.3984 788.6094,637.3984 Q789.5469,637.3984 790.2031,637.1484 Q790.5938,636.9922 791.0156,636.5547 Q791.2813,636.2891 791.4297,636.2109 Q791.5781,636.1328 791.7813,636.1328 Q792.1094,636.1328 792.3672,636.3906 Q792.625,636.6484 792.625,636.9922 Q792.625,637.3359 792.2813,637.7422 Q791.7813,638.3203 790.9844,638.6484 Q789.9063,639.1016 788.6094,639.1016 Q787.0938,639.1016 785.8906,638.4766 Q784.9063,637.9766 784.2188,636.9063 Q783.5313,635.8359 783.5313,634.5547 L783.5313,633.3984 Q783.5313,632.0703 784.1484,630.9219 Q784.7656,629.7734 785.8594,629.1563 Q786.9531,628.5391 788.1875,628.5391 Q788.9219,628.5391 789.5703,628.7031 Q790.2188,628.8672 790.7656,629.2266 Z " fill="#000000"/><text fill="#000000" font-family="sans-serif" font-size="12" font-style="italic" lengthAdjust="spacing" textLength="59" x="835.5" y="629.457">&#171;External&#187;</text><text fill="#000000" font-family="sans-serif" font-size="14" lengthAdjust="spacing" textLength="126" x="802" y="646.627">DataBase_ACCESS</text><line style="stroke:#181818;stroke-width:0.5;" x1="774" x2="930" y1="654.7031" y2="654.7031"/><line style="stroke:#181818;stroke-width:0.5;" x1="774" x2="930" y1="662.7031" y2="662.7031"/><ellipse cx="784" cy="677.0078" fill="#84BE84" rx="3" ry="3" style="stroke:#038048;stroke-width:1.0;"/><text fill="#000000" font-family="sans-serif" font-size="14" lengthAdjust="spacing" textLength="60" x="793" y="681.2363">adbCon()</text></g><g id="elem_GMN23"><path d="M494,53.5 L494,71 L459.18,75 L494,79 L494,96.2031 A0,0 0 0 0 494,96.2031 L714,96.2031 A0,0 0 0 0 714,96.2031 L714,63.5 L704,53.5 L494,53.5 A0,0 0 0 0 494,53.5 " fill="#FEFFDD" style="stroke:#181818;stroke-width:0.5;"/><path d="M704,53.5 L704,63.5 L714,63.5 L704,53.5 " fill="#FEFFDD" style="stroke:#181818;stroke-width:0.5;"/><text fill="#000000" font-family="sans-serif" font-size="13" lengthAdjust="spacing" textLength="199" x="500" y="71.9951">&#1054;&#1089;&#1085;&#1086;&#1074;&#1085;&#1072;&#1103; &#1090;&#1086;&#1095;&#1082;&#1072; &#1074;&#1093;&#1086;&#1076;&#1072; &#1074; &#1089;&#1080;&#1089;&#1090;&#1077;&#1084;&#1091;</text><text fill="#000000" font-family="sans-serif" font-size="13" lengthAdjust="spacing" textLength="128" x="500" y="88.3467">&#1088;&#1072;&#1089;&#1089;&#1090;&#1072;&#1085;&#1086;&#1074;&#1082;&#1080; &#1082;&#1088;&#1077;&#1087;&#1077;&#1078;&#1072;</text></g><g id="elem_GMN26"><path d="M514,235.5 L514,253 L478.18,257 L514,261 L514,278.2031 A0,0 0 0 0 514,278.2031 L740,278.2031 A0,0 0 0 0 740,278.2031 L740,245.5 L730,235.5 L514,235.5 A0,0 0 0 0 514,235.5 " fill="#FEFFDD" style="stroke:#181818;stroke-width:0.5;"/><path d="M730,235.5 L730,245.5 L740,245.5 L730,235.5 " fill="#FEFFDD" style="stroke:#181818;stroke-width:0.5;"/><text fill="#000000" font-family="sans-serif" font-size="13" lengthAdjust="spacing" textLength="205" x="520" y="253.9951">&#1054;&#1089;&#1085;&#1086;&#1074;&#1085;&#1072;&#1103; &#1083;&#1086;&#1075;&#1080;&#1082;&#1072; &#1088;&#1072;&#1089;&#1095;&#1077;&#1090;&#1072; &#1087;&#1086;&#1079;&#1080;&#1094;&#1080;&#1081;</text><text fill="#000000" font-family="sans-serif" font-size="13" lengthAdjust="spacing" textLength="196" x="520" y="270.3467">&#1082;&#1088;&#1077;&#1087;&#1077;&#1078;&#1072; &#1080; &#1079;&#1072;&#1087;&#1086;&#1083;&#1085;&#1077;&#1085;&#1080;&#1103; &#1084;&#1072;&#1089;&#1089;&#1080;&#1074;&#1086;&#1074;</text></g><g id="elem_GMN29"><path d="M517,416.5 L517,434 L482.1,438 L517,442 L517,459.2031 A0,0 0 0 0 517,459.2031 L755,459.2031 A0,0 0 0 0 755,459.2031 L755,426.5 L745,416.5 L517,416.5 A0,0 0 0 0 517,416.5 " fill="#FEFFDD" style="stroke:#181818;stroke-width:0.5;"/><path d="M745,416.5 L745,426.5 L755,426.5 L745,416.5 " fill="#FEFFDD" style="stroke:#181818;stroke-width:0.5;"/><text fill="#000000" font-family="sans-serif" font-size="13" lengthAdjust="spacing" textLength="217" x="523" y="434.9951">&#1057;&#1086;&#1079;&#1076;&#1072;&#1085;&#1080;&#1077; &#1082;&#1086;&#1085;&#1082;&#1088;&#1077;&#1090;&#1085;&#1099;&#1093; &#1082;&#1086;&#1085;&#1092;&#1080;&#1075;&#1091;&#1088;&#1072;&#1094;&#1080;&#1081;</text><text fill="#000000" font-family="sans-serif" font-size="13" lengthAdjust="spacing" textLength="187" x="523" y="451.3467">&#1082;&#1088;&#1077;&#1087;&#1077;&#1078;&#1072; &#1074; &#1079;&#1072;&#1074;&#1080;&#1089;&#1080;&#1084;&#1086;&#1089;&#1090;&#1080; &#1086;&#1090; &#1090;&#1080;&#1087;&#1072;</text></g><g id="elem_GMN32"><path d="M966.5,628.5 L966.5,671.2031 L1211.5,671.2031 L1211.5,638.5 L1201.5,628.5 L966.5,628.5 " fill="#FEFFDD" style="stroke:#181818;stroke-width:0.5;"/><path d="M1201.5,628.5 L1201.5,638.5 L1211.5,638.5 L1201.5,628.5 " fill="#FEFFDD" style="stroke:#181818;stroke-width:1.0;"/><text fill="#000000" font-family="sans-serif" font-size="13" lengthAdjust="spacing" textLength="224" x="972.5" y="646.9951">&#1061;&#1088;&#1072;&#1085;&#1077;&#1085;&#1080;&#1077; &#1080; &#1091;&#1087;&#1088;&#1072;&#1074;&#1083;&#1077;&#1085;&#1080;&#1077; &#1087;&#1072;&#1088;&#1072;&#1084;&#1077;&#1090;&#1088;&#1072;&#1084;&#1080;</text><text fill="#000000" font-family="sans-serif" font-size="13" lengthAdjust="spacing" textLength="114" x="972.5" y="663.3467">&#1082;&#1088;&#1077;&#1087;&#1077;&#1078;&#1072; &#1080; &#1087;&#1072;&#1085;&#1077;&#1083;&#1077;&#1081;</text></g><!--link FixKonfirmatSkant2 to PositionUtilities--><g id="link_FixKonfirmatSkant2_PositionUtilities"><path codeLine="48" d="M382,108.18 C382,136.49 382,172.05 382,203.89 " fill="none" id="FixKonfirmatSkant2-to-PositionUtilities" style="stroke:#181818;stroke-width:1.0;"/><polygon fill="#181818" points="382,209.89,386,200.89,382,204.89,378,200.89,382,209.89" style="stroke:#181818;stroke-width:1.0;"/><text fill="#000000" font-family="sans-serif" font-size="13" lengthAdjust="spacing" textLength="67" x="383" y="154.4951">&#1080;&#1089;&#1087;&#1086;&#1083;&#1100;&#1079;&#1091;&#1077;&#1090;</text></g><!--link FixKonfirmatSkant2 to Properties--><g id="link_FixKonfirmatSkant2_Properties"><path codeLine="49" d="M315.77,108.09 C240.45,148.76 121.51,226.71 72,334 C33.14,418.2 55.1096,522.7896 75.7596,588.0396 " fill="none" id="FixKonfirmatSkant2-to-Properties" style="stroke:#181818;stroke-width:1.0;"/><polygon fill="#181818" points="77.57,593.76,78.668,583.9725,76.0614,588.993,71.0409,586.3863,77.57,593.76" style="stroke:#181818;stroke-width:1.0;"/><text fill="#000000" font-family="sans-serif" font-size="13" lengthAdjust="spacing" textLength="67" x="73" y="348.4951">&#1080;&#1089;&#1087;&#1086;&#1083;&#1100;&#1079;&#1091;&#1077;&#1090;</text></g><!--link FixKonfirmatSkant2 to Builders--><g id="link_FixKonfirmatSkant2_Builders"><path codeLine="50" d="M427.99,108.25 C442.99,117.34 460.14,126.29 477,132 C536.58,152.18 716.28,118.93 758,166 C798.68,211.9 794.56,254.75 758,304 C686.59,400.18 611.97,339.43 500,382 C494.15,384.22 493.7236,384.3048 487.7336,386.7848 " fill="none" id="FixKonfirmatSkant2-to-Builders" style="stroke:#181818;stroke-width:1.0;"/><polygon fill="#181818" points="482.19,389.08,492.0356,389.333,486.8097,387.1673,488.9753,381.9414,482.19,389.08" style="stroke:#181818;stroke-width:1.0;"/><text fill="#000000" font-family="sans-serif" font-size="13" lengthAdjust="spacing" textLength="67" x="787" y="262.4951">&#1080;&#1089;&#1087;&#1086;&#1083;&#1100;&#1079;&#1091;&#1077;&#1090;</text></g><!--link PositionUtilities to Properties--><g id="link_PositionUtilities_Properties"><path codeLine="52" d="M285.81,278.31 C228.26,295.74 159.11,327.08 121,382 C77.7,444.4 79.496,529.8401 87.046,587.8801 " fill="none" id="PositionUtilities-to-Properties" style="stroke:#181818;stroke-width:1.0;"/><polygon fill="#181818" points="87.82,593.83,90.6256,584.3892,87.175,588.8718,82.6925,585.4212,87.82,593.83" style="stroke:#181818;stroke-width:1.0;"/><text fill="#000000" font-family="sans-serif" font-size="13" lengthAdjust="spacing" textLength="67" x="122" y="443.4951">&#1080;&#1089;&#1087;&#1086;&#1083;&#1100;&#1079;&#1091;&#1077;&#1090;</text></g><!--link PositionUtilities to Builders--><g id="link_PositionUtilities_Builders"><path codeLine="53" d="M381.74,304.1 C381.61,327.82 381.4837,350.9101 381.3437,375.8201 " fill="none" id="PositionUtilities-to-Builders" style="stroke:#181818;stroke-width:1.0;"/><polygon fill="#181818" points="381.31,381.82,385.3605,372.8426,381.3381,376.8201,377.3606,372.7977,381.31,381.82" style="stroke:#181818;stroke-width:1.0;"/><text fill="#000000" font-family="sans-serif" font-size="13" lengthAdjust="spacing" textLength="67" x="382" y="348.4951">&#1080;&#1089;&#1087;&#1086;&#1083;&#1100;&#1079;&#1091;&#1077;&#1090;</text></g><!--link PositionUtilities to HolePosition--><g id="link_PositionUtilities_HolePosition"><path codeLine="54" d="M288.63,304.26 C259.25,323.9 230.25,349.8 214,382 C183.08,443.25 202.8753,515.1341 228.0753,570.7941 " fill="none" id="PositionUtilities-to-HolePosition" style="stroke:#181818;stroke-width:1.0;"/><polygon fill="#181818" points="230.55,576.26,230.4819,566.4114,228.4878,571.7051,223.1941,569.7109,230.55,576.26" style="stroke:#181818;stroke-width:1.0;"/><text fill="#000000" font-family="sans-serif" font-size="13" lengthAdjust="spacing" textLength="47" x="215" y="443.4951">&#1089;&#1086;&#1079;&#1076;&#1072;&#1077;&#1090;</text></g><!--link PositionUtilities to DataBase_ACCESS--><g id="link_PositionUtilities_DataBase_ACCESS"><path codeLine="55" d="M478.01,298.56 C484.38,300.58 490.75,302.42 497,304 C659.51,345.1 774.42,241.6 866,382 C911.9,452.37 887.8725,551.0335 868.6925,606.1335 " fill="none" id="PositionUtilities-to-DataBase_ACCESS" style="stroke:#181818;stroke-width:1.0;"/><polygon fill="#181818" points="866.72,611.8,873.4564,604.6152,868.3637,607.0779,865.901,601.9853,866.72,611.8" style="stroke:#181818;stroke-width:1.0;"/><text fill="#000000" font-family="sans-serif" font-size="13" lengthAdjust="spacing" textLength="67" x="892" y="443.4951">&#1080;&#1089;&#1087;&#1086;&#1083;&#1100;&#1079;&#1091;&#1077;&#1090;</text></g><!--link PositionUtilities to k3--><g id="link_PositionUtilities_k3"><path codeLine="56" d="M478.04,297.28 C484.43,299.63 490.79,301.89 497,304 C617.68,345.06 696.09,280.34 773,382 C803.03,421.7 784.62,445.6 773,494 C764.57,529.1 749.8128,560.0113 733.2528,588.5313 " fill="none" id="PositionUtilities-to-k3" style="stroke:#181818;stroke-width:1.0;"/><polygon fill="#181818" points="730.24,593.72,738.2184,587.9454,732.7507,589.3961,731.3001,583.9284,730.24,593.72" style="stroke:#181818;stroke-width:1.0;"/><text fill="#000000" font-family="sans-serif" font-size="13" lengthAdjust="spacing" textLength="67" x="790" y="443.4951">&#1080;&#1089;&#1087;&#1086;&#1083;&#1100;&#1079;&#1091;&#1077;&#1090;</text></g><!--link Builders to HolePosition--><g id="link_Builders_HolePosition"><path codeLine="58" d="M352.1,494.18 C338.92,519.33 325.9237,544.1349 311.8037,571.0949 " fill="none" id="Builders-to-HolePosition" style="stroke:#181818;stroke-width:1.0;"/><polygon fill="#181818" points="309.02,576.41,316.739,570.2931,311.3398,571.9807,309.6522,566.5815,309.02,576.41" style="stroke:#181818;stroke-width:1.0;"/><text fill="#000000" font-family="sans-serif" font-size="13" lengthAdjust="spacing" textLength="47" x="336" y="538.4951">&#1089;&#1086;&#1079;&#1076;&#1072;&#1077;&#1090;</text></g><!--link Builders to Properties--><g id="link_Builders_Properties"><path codeLine="59" d="M281.46,494.11 C253.9,510.84 224.55,530.11 199,550 C182.05,563.2 169.1562,574.7312 153.9162,589.7312 " fill="none" id="Builders-to-Properties" style="stroke:#181818;stroke-width:1.0;"/><polygon fill="#181818" points="149.64,593.94,158.8602,590.4775,153.2035,590.4326,153.2484,584.776,149.64,593.94" style="stroke:#181818;stroke-width:1.0;"/><text fill="#000000" font-family="sans-serif" font-size="13" lengthAdjust="spacing" textLength="67" x="232" y="538.4951">&#1080;&#1089;&#1087;&#1086;&#1083;&#1100;&#1079;&#1091;&#1077;&#1090;</text></g><!--link Builders to k3--><g id="link_Builders_k3"><path codeLine="60" d="M463.24,494.18 C523.19,534.4 597.0874,583.9773 645.3674,616.3673 " fill="none" id="Builders-to-k3" style="stroke:#181818;stroke-width:1.0;"/><polygon fill="#181818" points="650.35,619.71,645.1046,611.3742,646.1978,616.9244,640.6476,618.0177,650.35,619.71" style="stroke:#181818;stroke-width:1.0;"/><text fill="#000000" font-family="sans-serif" font-size="13" lengthAdjust="spacing" textLength="67" x="529" y="538.4951">&#1080;&#1089;&#1087;&#1086;&#1083;&#1100;&#1079;&#1091;&#1077;&#1090;</text></g><!--link Properties to GMN32--><g id="link_Properties_GMN32"><path d="M133.33,594 C153.91,566.8 182.51,536.85 216.5,522 C289.09,490.28 854.76,495.72 929.5,522 C989.79,543.2 1044.15,597.87 1071.12,628.46 " fill="none" id="Properties-GMN32" style="stroke:#181818;stroke-width:1.0;stroke-dasharray:7.0,7.0;"/></g><!--SRC=[bLLBQzj04BxxLoovjANaqjv2C3XE-g0j14nAsulPM6j7M9QC98DB2JHsqr1Qw3y8zD2xQyUDdFZn5tR_KRzPoPBbI4c3GSnZP-QRXsSUC7ak_wXlSg1-ieCthvcya84So97wZEyKlm6JGta99W0pXtei9-f4zI0DO2El89pA1Rupg6PGpEMmK6ZpMfCt1Dkecrt7DOJhRR1F1SPg5lSyzipildBikkcsk5zfSjj_efMCFMvnqtxu2FHnuJZBIySthPIhVTTf2zStXSUsjnEcM5nwtESkRtaXNLrb00AiLp9usnUk3ibOujVnJDzqx0C4D2FtCPruht6hrh6uBwhjoC2h0gpmT1AP3qWVfRWIRwTZMfGWmYp99CeXIQeDr-cqgvweERQH3hAghnq9FrzhE_xQWnIA5uubbfa3oIxtUOBYvIxKAwGHqkzYwVkO-X1IwIRkTL5dcrkhxMi-HPYb8WdrbhinKN9T_Z7adbCEwvW9v0xtHBLKBkzLAfd-k75OTbO6AsC0DpUB6KtVOXZp4ptVr-g7l5HzELQzNFja6Ezd67S_nwnm4zd_nSkskojSjbLgEBOOxERO31VO3VaswysvLq0CHruzuWpk1fPwUdV5KizlGO1_ac2ksJZocLFFs6WODNaEmnajH7nfmz9sL6VOcRHLrQdUfqGIv41lrR6SgZvCQVz2GA91vE9A1bYtK8m1PYp_oa51s0OZ7EjeRfGp2uoy1ZF2NYSuKRmpoeqWBNG90_KL-WbPfm8pWa97GLSbtFpXEPY6i64rr8SW3-6ookJwLzmkE97ZyARCmeX0CrFVrMaaL5_mOgJw6cuUjc68RQZxfi-MhYCWprMFUX3WxIt5YqU4VF_Mbp3AaC0531EmqD8XSe_bS1aTJO2Eg22xSel88rbF4Xp_0000]--></g></svg>