<?xml version="1.0" encoding="us-ascii" standalone="no"?><svg xmlns="http://www.w3.org/2000/svg" xmlns:xlink="http://www.w3.org/1999/xlink" contentStyleType="text/css" height="485px" preserveAspectRatio="none" style="width:1548px;height:485px;background:#FFFFFF;" version="1.1" viewBox="0 0 1548 485" width="1548px" zoomAndPan="magnify"><defs/><g><!--cluster fixordersutils--><g id="cluster_fixordersutils"><path d="M8.5,6 L103.5,6 A3.75,3.75 0 0 1 106,8.5 L113,29.6094 L912.5,29.6094 A2.5,2.5 0 0 1 915,32.1094 L915,475.5 A2.5,2.5 0 0 1 912.5,478 L8.5,478 A2.5,2.5 0 0 1 6,475.5 L6,8.5 A2.5,2.5 0 0 1 8.5,6 " fill="none" style="stroke:#000000;stroke-width:1.5;"/><line style="stroke:#000000;stroke-width:1.5;" x1="6" x2="113" y1="29.6094" y2="29.6094"/><text fill="#000000" font-family="sans-serif" font-size="14" font-weight="bold" lengthAdjust="spacing" textLength="94" x="10" y="22.5332">fixordersutils</text></g><!--class PositionUtilities--><g id="elem_PositionUtilities"><rect codeLine="4" fill="#F1F1F1" height="224.0938" id="PositionUtilities" rx="2.5" ry="2.5" style="stroke:#181818;stroke-width:0.5;" width="757" x="140.5" y="42"/><ellipse cx="467.75" cy="58" fill="#ADD1B2" rx="11" ry="11" style="stroke:#181818;stroke-width:1.0;"/><path d="M470.5156,53.875 Q470.6719,53.6563 470.8594,53.5469 Q471.0469,53.4375 471.2656,53.4375 Q471.6406,53.4375 471.875,53.6953 Q472.1094,53.9531 472.1094,54.5625 L472.1094,56.0156 Q472.1094,56.625 471.875,56.8906 Q471.6406,57.1563 471.2656,57.1563 Q470.9219,57.1563 470.7188,56.9531 Q470.5156,56.7656 470.4063,56.25 Q470.3594,55.8906 470.1719,55.7031 Q469.8438,55.3281 469.2344,55.1094 Q468.625,54.8906 468,54.8906 Q467.2344,54.8906 466.6016,55.2188 Q465.9688,55.5469 465.4766,56.2969 Q464.9844,57.0469 464.9844,58.0781 L464.9844,59.1719 Q464.9844,60.4063 465.875,61.2266 Q466.7656,62.0469 468.3594,62.0469 Q469.2969,62.0469 469.9531,61.7969 Q470.3438,61.6406 470.7656,61.2031 Q471.0313,60.9375 471.1797,60.8594 Q471.3281,60.7813 471.5313,60.7813 Q471.8594,60.7813 472.1172,61.0391 Q472.375,61.2969 472.375,61.6406 Q472.375,61.9844 472.0313,62.3906 Q471.5313,62.9688 470.7344,63.2969 Q469.6563,63.75 468.3594,63.75 Q466.8438,63.75 465.6406,63.125 Q464.6563,62.625 463.9688,61.5547 Q463.2813,60.4844 463.2813,59.2031 L463.2813,58.0469 Q463.2813,56.7188 463.8984,55.5703 Q464.5156,54.4219 465.6094,53.8047 Q466.7031,53.1875 467.9375,53.1875 Q468.6719,53.1875 469.3203,53.3516 Q469.9688,53.5156 470.5156,53.875 Z " fill="#000000"/><text fill="#000000" font-family="sans-serif" font-size="14" lengthAdjust="spacing" textLength="94" x="488.25" y="63.7285">PositionUtilities</text><line style="stroke:#181818;stroke-width:0.5;" x1="141.5" x2="896.5" y1="74" y2="74"/><line style="stroke:#181818;stroke-width:0.5;" x1="141.5" x2="896.5" y1="82" y2="82"/><ellipse cx="151.5" cy="96.3047" fill="#84BE84" rx="3" ry="3" style="stroke:#038048;stroke-width:1.0;"/><text fill="#000000" font-family="sans-serif" font-size="14" lengthAdjust="spacing" textLength="480" x="160.5" y="100.5332">calculate_position_fix(lengthXPos: dict, id_hol_request: types.FunctionType)</text><ellipse cx="151.5" cy="113.9141" fill="#84BE84" rx="3" ry="3" style="stroke:#038048;stroke-width:1.0;"/><text fill="#000000" font-family="sans-serif" font-size="14" lengthAdjust="spacing" textLength="731" x="160.5" y="118.1426">calculate_positions_fixes(lengthXPos: dict, dict_builds_fixes: dict, id_hol_request: types.FunctionType, x_poses_fun)</text><ellipse cx="151.5" cy="131.5234" fill="#84BE84" rx="3" ry="3" style="stroke:#038048;stroke-width:1.0;"/><text fill="#000000" font-family="sans-serif" font-size="14" lengthAdjust="spacing" textLength="191" x="160.5" y="135.752">get_x_poses(lengthXPos: dict)</text><ellipse cx="151.5" cy="149.1328" fill="#84BE84" rx="3" ry="3" style="stroke:#038048;stroke-width:1.0;"/><text fill="#000000" font-family="sans-serif" font-size="14" lengthAdjust="spacing" textLength="248" x="160.5" y="153.3613">get_x_poses_orderby(lengthXPos: dict)</text><ellipse cx="151.5" cy="166.7422" fill="#84BE84" rx="3" ry="3" style="stroke:#038048;stroke-width:1.0;"/><text fill="#000000" font-family="sans-serif" font-size="14" lengthAdjust="spacing" textLength="241" x="160.5" y="170.9707">get_build_group_fixes(buildXPos: dict)</text><ellipse cx="151.5" cy="184.3516" fill="#84BE84" rx="3" ry="3" style="stroke:#038048;stroke-width:1.0;"/><text fill="#000000" font-family="sans-serif" font-size="14" lengthAdjust="spacing" textLength="227" x="160.5" y="188.5801">_x_poses_request(lengthXPos: dict)</text><ellipse cx="151.5" cy="201.9609" fill="#84BE84" rx="3" ry="3" style="stroke:#038048;stroke-width:1.0;"/><text fill="#000000" font-family="sans-serif" font-size="14" lengthAdjust="spacing" textLength="144" x="160.5" y="206.1895">_x_position_adapter(x)</text><ellipse cx="151.5" cy="219.5703" fill="#84BE84" rx="3" ry="3" style="stroke:#038048;stroke-width:1.0;"/><text fill="#000000" font-family="sans-serif" font-size="14" lengthAdjust="spacing" textLength="112" x="160.5" y="223.7988">_id_hol_request()</text><ellipse cx="151.5" cy="237.1797" fill="#84BE84" rx="3" ry="3" style="stroke:#038048;stroke-width:1.0;"/><text fill="#000000" font-family="sans-serif" font-size="14" lengthAdjust="spacing" textLength="165" x="160.5" y="241.4082">get_length_is_slot(is_slot)</text><ellipse cx="151.5" cy="254.7891" fill="#84BE84" rx="3" ry="3" style="stroke:#038048;stroke-width:1.0;"/><text fill="#000000" font-family="sans-serif" font-size="14" lengthAdjust="spacing" textLength="79" x="160.5" y="259.0176">HOLE_DIM()</text></g><!--class NumFix--><g id="elem_NumFix"><rect codeLine="17" fill="#F1F1F1" height="118.4375" id="NumFix" rx="2.5" ry="2.5" style="stroke:#181818;stroke-width:0.5;" width="121" x="22.5" y="335"/><ellipse cx="56.85" cy="351" fill="#ADD1B2" rx="11" ry="11" style="stroke:#181818;stroke-width:1.0;"/><path d="M59.6156,346.875 Q59.7719,346.6563 59.9594,346.5469 Q60.1469,346.4375 60.3656,346.4375 Q60.7406,346.4375 60.975,346.6953 Q61.2094,346.9531 61.2094,347.5625 L61.2094,349.0156 Q61.2094,349.625 60.975,349.8906 Q60.7406,350.1563 60.3656,350.1563 Q60.0219,350.1563 59.8188,349.9531 Q59.6156,349.7656 59.5063,349.25 Q59.4594,348.8906 59.2719,348.7031 Q58.9438,348.3281 58.3344,348.1094 Q57.725,347.8906 57.1,347.8906 Q56.3344,347.8906 55.7016,348.2188 Q55.0688,348.5469 54.5766,349.2969 Q54.0844,350.0469 54.0844,351.0781 L54.0844,352.1719 Q54.0844,353.4063 54.975,354.2266 Q55.8656,355.0469 57.4594,355.0469 Q58.3969,355.0469 59.0531,354.7969 Q59.4438,354.6406 59.8656,354.2031 Q60.1313,353.9375 60.2797,353.8594 Q60.4281,353.7813 60.6313,353.7813 Q60.9594,353.7813 61.2172,354.0391 Q61.475,354.2969 61.475,354.6406 Q61.475,354.9844 61.1313,355.3906 Q60.6313,355.9688 59.8344,356.2969 Q58.7563,356.75 57.4594,356.75 Q55.9438,356.75 54.7406,356.125 Q53.7563,355.625 53.0688,354.5547 Q52.3813,353.4844 52.3813,352.2031 L52.3813,351.0469 Q52.3813,349.7188 52.9984,348.5703 Q53.6156,347.4219 54.7094,346.8047 Q55.8031,346.1875 57.0375,346.1875 Q57.7719,346.1875 58.4203,346.3516 Q59.0688,346.5156 59.6156,346.875 Z " fill="#000000"/><text fill="#000000" font-family="sans-serif" font-size="14" lengthAdjust="spacing" textLength="46" x="75.15" y="356.7285">NumFix</text><line style="stroke:#181818;stroke-width:0.5;" x1="23.5" x2="142.5" y1="367" y2="367"/><rect fill="none" height="6" style="stroke:#C82930;stroke-width:1.0;" width="6" x="30.5" y="378.3047"/><text fill="#000000" font-family="sans-serif" font-size="14" lengthAdjust="spacing" textLength="95" x="42.5" y="385.5332">NUM_FIX_MAC</text><line style="stroke:#181818;stroke-width:0.5;" x1="23.5" x2="142.5" y1="392.6094" y2="392.6094"/><ellipse cx="33.5" cy="406.9141" fill="#84BE84" rx="3" ry="3" style="stroke:#038048;stroke-width:1.0;"/><text fill="#000000" font-family="sans-serif" font-size="14" lengthAdjust="spacing" textLength="60" x="42.5" y="411.1426">initialise()</text><ellipse cx="33.5" cy="424.5234" fill="#84BE84" rx="3" ry="3" style="stroke:#038048;stroke-width:1.0;"/><text fill="#000000" font-family="sans-serif" font-size="14" lengthAdjust="spacing" textLength="34" x="42.5" y="428.752">add()</text><ellipse cx="33.5" cy="442.1328" fill="#84BE84" rx="3" ry="3" style="stroke:#038048;stroke-width:1.0;"/><text fill="#000000" font-family="sans-serif" font-size="14" lengthAdjust="spacing" textLength="44" x="42.5" y="446.3613">value()</text></g><!--class HolePositionHelpers--><g id="elem_HolePositionHelpers"><rect codeLine="24" fill="#F1F1F1" height="136.0469" id="HolePositionHelpers" rx="2.5" ry="2.5" style="stroke:#181818;stroke-width:0.5;" width="460" x="179" y="326"/><ellipse cx="341.75" cy="342" fill="#ADD1B2" rx="11" ry="11" style="stroke:#181818;stroke-width:1.0;"/><path d="M344.5156,337.875 Q344.6719,337.6563 344.8594,337.5469 Q345.0469,337.4375 345.2656,337.4375 Q345.6406,337.4375 345.875,337.6953 Q346.1094,337.9531 346.1094,338.5625 L346.1094,340.0156 Q346.1094,340.625 345.875,340.8906 Q345.6406,341.1563 345.2656,341.1563 Q344.9219,341.1563 344.7188,340.9531 Q344.5156,340.7656 344.4063,340.25 Q344.3594,339.8906 344.1719,339.7031 Q343.8438,339.3281 343.2344,339.1094 Q342.625,338.8906 342,338.8906 Q341.2344,338.8906 340.6016,339.2188 Q339.9688,339.5469 339.4766,340.2969 Q338.9844,341.0469 338.9844,342.0781 L338.9844,343.1719 Q338.9844,344.4063 339.875,345.2266 Q340.7656,346.0469 342.3594,346.0469 Q343.2969,346.0469 343.9531,345.7969 Q344.3438,345.6406 344.7656,345.2031 Q345.0313,344.9375 345.1797,344.8594 Q345.3281,344.7813 345.5313,344.7813 Q345.8594,344.7813 346.1172,345.0391 Q346.375,345.2969 346.375,345.6406 Q346.375,345.9844 346.0313,346.3906 Q345.5313,346.9688 344.7344,347.2969 Q343.6563,347.75 342.3594,347.75 Q340.8438,347.75 339.6406,347.125 Q338.6563,346.625 337.9688,345.5547 Q337.2813,344.4844 337.2813,343.2031 L337.2813,342.0469 Q337.2813,340.7188 337.8984,339.5703 Q338.5156,338.4219 339.6094,337.8047 Q340.7031,337.1875 341.9375,337.1875 Q342.6719,337.1875 343.3203,337.3516 Q343.9688,337.5156 344.5156,337.875 Z " fill="#000000"/><text fill="#000000" font-family="sans-serif" font-size="14" lengthAdjust="spacing" textLength="126" x="362.25" y="347.7285">HolePositionHelpers</text><line style="stroke:#181818;stroke-width:0.5;" x1="180" x2="638" y1="358" y2="358"/><line style="stroke:#181818;stroke-width:0.5;" x1="180" x2="638" y1="366" y2="366"/><ellipse cx="190" cy="380.3047" fill="#84BE84" rx="3" ry="3" style="stroke:#038048;stroke-width:1.0;"/><text fill="#000000" font-family="sans-serif" font-size="14" lengthAdjust="spacing" textLength="159" x="199" y="384.5332">_id_holes_request(fix_id)</text><ellipse cx="190" cy="397.9141" fill="#84BE84" rx="3" ry="3" style="stroke:#038048;stroke-width:1.0;"/><text fill="#000000" font-family="sans-serif" font-size="14" lengthAdjust="spacing" textLength="434" x="199" y="402.1426">_get_delta_position_fix_detail(det_id: iter, ordered_fix: iter, ident: str)</text><ellipse cx="190" cy="415.5234" fill="#84BE84" rx="3" ry="3" style="stroke:#038048;stroke-width:1.0;"/><text fill="#000000" font-family="sans-serif" font-size="14" lengthAdjust="spacing" textLength="246" x="199" y="419.752">_get_HFX(det_id: iter, ordered_fix: iter)</text><ellipse cx="190" cy="433.1328" fill="#84BE84" rx="3" ry="3" style="stroke:#038048;stroke-width:1.0;"/><text fill="#000000" font-family="sans-serif" font-size="14" lengthAdjust="spacing" textLength="247" x="199" y="437.3613">_get_HFY(det_id: iter, ordered_fix: iter)</text><ellipse cx="190" cy="450.7422" fill="#84BE84" rx="3" ry="3" style="stroke:#038048;stroke-width:1.0;"/><text fill="#000000" font-family="sans-serif" font-size="14" lengthAdjust="spacing" textLength="246" x="199" y="454.9707">_get_HFZ(det_id: iter, ordered_fix: iter)</text></g><!--class HolePosition--><g id="elem_HolePosition"><rect codeLine="32" fill="#F1F1F1" height="136.0469" id="HolePosition" rx="2.5" ry="2.5" style="stroke:#181818;stroke-width:0.5;" width="110" x="674" y="326"/><ellipse cx="689" cy="342" fill="#ADD1B2" rx="11" ry="11" style="stroke:#181818;stroke-width:1.0;"/><path d="M691.7656,337.875 Q691.9219,337.6563 692.1094,337.5469 Q692.2969,337.4375 692.5156,337.4375 Q692.8906,337.4375 693.125,337.6953 Q693.3594,337.9531 693.3594,338.5625 L693.3594,340.0156 Q693.3594,340.625 693.125,340.8906 Q692.8906,341.1563 692.5156,341.1563 Q692.1719,341.1563 691.9688,340.9531 Q691.7656,340.7656 691.6563,340.25 Q691.6094,339.8906 691.4219,339.7031 Q691.0938,339.3281 690.4844,339.1094 Q689.875,338.8906 689.25,338.8906 Q688.4844,338.8906 687.8516,339.2188 Q687.2188,339.5469 686.7266,340.2969 Q686.2344,341.0469 686.2344,342.0781 L686.2344,343.1719 Q686.2344,344.4063 687.125,345.2266 Q688.0156,346.0469 689.6094,346.0469 Q690.5469,346.0469 691.2031,345.7969 Q691.5938,345.6406 692.0156,345.2031 Q692.2813,344.9375 692.4297,344.8594 Q692.5781,344.7813 692.7813,344.7813 Q693.1094,344.7813 693.3672,345.0391 Q693.625,345.2969 693.625,345.6406 Q693.625,345.9844 693.2813,346.3906 Q692.7813,346.9688 691.9844,347.2969 Q690.9063,347.75 689.6094,347.75 Q688.0938,347.75 686.8906,347.125 Q685.9063,346.625 685.2188,345.5547 Q684.5313,344.4844 684.5313,343.2031 L684.5313,342.0469 Q684.5313,340.7188 685.1484,339.5703 Q685.7656,338.4219 686.8594,337.8047 Q687.9531,337.1875 689.1875,337.1875 Q689.9219,337.1875 690.5703,337.3516 Q691.2188,337.5156 691.7656,337.875 Z " fill="#000000"/><text fill="#000000" font-family="sans-serif" font-size="14" lengthAdjust="spacing" textLength="78" x="703" y="347.7285">HolePosition</text><line style="stroke:#181818;stroke-width:0.5;" x1="675" x2="783" y1="358" y2="358"/><ellipse cx="685" cy="372.3047" fill="none" rx="3" ry="3" style="stroke:#038048;stroke-width:1.0;"/><text fill="#000000" font-family="sans-serif" font-size="14" lengthAdjust="spacing" textLength="33" x="694" y="376.5332">IDHol</text><ellipse cx="685" cy="389.9141" fill="none" rx="3" ry="3" style="stroke:#038048;stroke-width:1.0;"/><text fill="#000000" font-family="sans-serif" font-size="14" lengthAdjust="spacing" textLength="41" x="694" y="394.1426">IDHold</text><ellipse cx="685" cy="407.5234" fill="none" rx="3" ry="3" style="stroke:#038048;stroke-width:1.0;"/><text fill="#000000" font-family="sans-serif" font-size="14" lengthAdjust="spacing" textLength="28" x="694" y="411.752">XHol</text><ellipse cx="685" cy="425.1328" fill="none" rx="3" ry="3" style="stroke:#038048;stroke-width:1.0;"/><text fill="#000000" font-family="sans-serif" font-size="14" lengthAdjust="spacing" textLength="29" x="694" y="429.3613">YHol</text><ellipse cx="685" cy="442.7422" fill="none" rx="3" ry="3" style="stroke:#038048;stroke-width:1.0;"/><text fill="#000000" font-family="sans-serif" font-size="14" lengthAdjust="spacing" textLength="28" x="694" y="446.9707">ZHol</text><line style="stroke:#181818;stroke-width:0.5;" x1="675" x2="783" y1="454.0469" y2="454.0469"/></g><!--class Params--><g id="elem_Params"><rect fill="#F1F1F1" height="48" id="Params" rx="2.5" ry="2.5" style="stroke:#181818;stroke-width:0.5;" width="80" x="819" y="370"/><ellipse cx="834" cy="386" fill="#ADD1B2" rx="11" ry="11" style="stroke:#181818;stroke-width:1.0;"/><path d="M836.7656,381.875 Q836.9219,381.6563 837.1094,381.5469 Q837.2969,381.4375 837.5156,381.4375 Q837.8906,381.4375 838.125,381.6953 Q838.3594,381.9531 838.3594,382.5625 L838.3594,384.0156 Q838.3594,384.625 838.125,384.8906 Q837.8906,385.1563 837.5156,385.1563 Q837.1719,385.1563 836.9688,384.9531 Q836.7656,384.7656 836.6563,384.25 Q836.6094,383.8906 836.4219,383.7031 Q836.0938,383.3281 835.4844,383.1094 Q834.875,382.8906 834.25,382.8906 Q833.4844,382.8906 832.8516,383.2188 Q832.2188,383.5469 831.7266,384.2969 Q831.2344,385.0469 831.2344,386.0781 L831.2344,387.1719 Q831.2344,388.4063 832.125,389.2266 Q833.0156,390.0469 834.6094,390.0469 Q835.5469,390.0469 836.2031,389.7969 Q836.5938,389.6406 837.0156,389.2031 Q837.2813,388.9375 837.4297,388.8594 Q837.5781,388.7813 837.7813,388.7813 Q838.1094,388.7813 838.3672,389.0391 Q838.625,389.2969 838.625,389.6406 Q838.625,389.9844 838.2813,390.3906 Q837.7813,390.9688 836.9844,391.2969 Q835.9063,391.75 834.6094,391.75 Q833.0938,391.75 831.8906,391.125 Q830.9063,390.625 830.2188,389.5547 Q829.5313,388.4844 829.5313,387.2031 L829.5313,386.0469 Q829.5313,384.7188 830.1484,383.5703 Q830.7656,382.4219 831.8594,381.8047 Q832.9531,381.1875 834.1875,381.1875 Q834.9219,381.1875 835.5703,381.3516 Q836.2188,381.5156 836.7656,381.875 Z " fill="#000000"/><text fill="#000000" font-family="sans-serif" font-size="14" lengthAdjust="spacing" textLength="48" x="848" y="391.7285">Params</text><line style="stroke:#181818;stroke-width:0.5;" x1="820" x2="898" y1="402" y2="402"/><line style="stroke:#181818;stroke-width:0.5;" x1="820" x2="898" y1="410" y2="410"/></g><g id="elem_GMN12"><path d="M932.5,132.5 L932.5,150 L897.54,154 L932.5,158 L932.5,175.2031 A0,0 0 0 0 932.5,175.2031 L1285.5,175.2031 A0,0 0 0 0 1285.5,175.2031 L1285.5,142.5 L1275.5,132.5 L932.5,132.5 A0,0 0 0 0 932.5,132.5 " fill="#FEFFDD" style="stroke:#181818;stroke-width:0.5;"/><path d="M1275.5,132.5 L1275.5,142.5 L1285.5,142.5 L1275.5,132.5 " fill="#FEFFDD" style="stroke:#181818;stroke-width:0.5;"/><text fill="#000000" font-family="sans-serif" font-size="13" lengthAdjust="spacing" textLength="309" x="938.5" y="150.9951">&#1059;&#1090;&#1080;&#1083;&#1080;&#1090;&#1099; &#1076;&#1083;&#1103; &#1088;&#1072;&#1073;&#1086;&#1090;&#1099; &#1089; &#1087;&#1086;&#1079;&#1080;&#1094;&#1080;&#1086;&#1085;&#1080;&#1088;&#1086;&#1074;&#1072;&#1085;&#1080;&#1077;&#1084; &#1082;&#1088;&#1077;&#1087;&#1077;&#1078;&#1072;</text><text fill="#000000" font-family="sans-serif" font-size="13" lengthAdjust="spacing" textLength="332" x="938.5" y="167.3467">&#1057;&#1086;&#1076;&#1077;&#1088;&#1078;&#1080;&#1090; &#1086;&#1089;&#1085;&#1086;&#1074;&#1085;&#1099;&#1077; &#1092;&#1091;&#1085;&#1082;&#1094;&#1080;&#1080; &#1088;&#1072;&#1089;&#1095;&#1077;&#1090;&#1072; &#1087;&#1086;&#1079;&#1080;&#1094;&#1080;&#1081; &#1082;&#1088;&#1077;&#1087;&#1077;&#1078;&#1072;</text></g><g id="elem_GMN15"><path d="M934,364.5 L934,423.5547 L1248,423.5547 L1248,374.5 L1238,364.5 L934,364.5 " fill="#FEFFDD" style="stroke:#181818;stroke-width:0.5;"/><path d="M1238,364.5 L1238,374.5 L1248,374.5 L1238,364.5 " fill="#FEFFDD" style="stroke:#181818;stroke-width:1.0;"/><text fill="#000000" font-family="sans-serif" font-size="13" lengthAdjust="spacing" textLength="268" x="940" y="382.9951">&#1050;&#1083;&#1072;&#1089;&#1089; &#1088;&#1072;&#1073;&#1086;&#1090;&#1072;&#1077;&#1090; &#1089; &#1075;&#1083;&#1086;&#1073;&#1072;&#1083;&#1100;&#1085;&#1086;&#1081; &#1087;&#1077;&#1088;&#1077;&#1084;&#1077;&#1085;&#1085;&#1086;&#1081; &#1082;3</text><text fill="#000000" font-family="sans-serif" font-size="13" lengthAdjust="spacing" textLength="289" x="940" y="399.3467">NumFixMac &#1076;&#1083;&#1103; &#1087;&#1077;&#1088;&#1077;&#1076;&#1072;&#1095;&#1080; &#1082;&#1086;&#1083;&#1080;&#1095;&#1077;&#1089;&#1090;&#1074;&#1072; &#1082;&#1088;&#1077;&#1087;&#1077;&#1078;&#1077;&#1081;</text><text fill="#000000" font-family="sans-serif" font-size="13" lengthAdjust="spacing" textLength="170" x="940" y="415.6982">&#1080;&#1079; &#1087;&#1086;&#1083;&#1100;&#1079;&#1086;&#1074;&#1072;&#1090;&#1077;&#1083;&#1100;&#1089;&#1082;&#1086;&#1075;&#1086; &#1084;&#1072;&#1082;&#1088;&#1086;</text></g><g id="elem_GMN18"><path d="M1283,372.5 L1283,415.2031 L1541,415.2031 L1541,382.5 L1531,372.5 L1283,372.5 " fill="#FEFFDD" style="stroke:#181818;stroke-width:0.5;"/><path d="M1531,372.5 L1531,382.5 L1541,382.5 L1531,372.5 " fill="#FEFFDD" style="stroke:#181818;stroke-width:1.0;"/><text fill="#000000" font-family="sans-serif" font-size="13" lengthAdjust="spacing" textLength="233" x="1289" y="390.9951">&#1042;&#1089;&#1087;&#1086;&#1084;&#1086;&#1075;&#1072;&#1090;&#1077;&#1083;&#1100;&#1085;&#1099;&#1077; &#1092;&#1091;&#1085;&#1082;&#1094;&#1080;&#1080; &#1076;&#1083;&#1103; &#1088;&#1072;&#1073;&#1086;&#1090;&#1099;</text><text fill="#000000" font-family="sans-serif" font-size="13" lengthAdjust="spacing" textLength="219" x="1289" y="407.3467">&#1089; &#1076;&#1077;&#1090;&#1072;&#1083;&#1103;&#1084;&#1080; &#1082;&#1088;&#1077;&#1087;&#1077;&#1078;&#1072; &#1080; &#1080;&#1093; &#1087;&#1086;&#1079;&#1080;&#1094;&#1080;&#1103;&#1084;&#1080;</text></g><!--link PositionUtilities to HolePosition--><g id="link_PositionUtilities_HolePosition"><path codeLine="40" d="M617.24,266.33 C636.66,288.35 652.4294,306.2217 669.8094,325.9117 " fill="none" id="PositionUtilities-to-HolePosition" style="stroke:#181818;stroke-width:1.0;"/><polygon fill="#181818" points="673.78,330.41,670.823,321.0155,670.4712,326.6614,664.8253,326.3096,673.78,330.41" style="stroke:#181818;stroke-width:1.0;"/></g><!--link PositionUtilities to NumFix--><g id="link_PositionUtilities_NumFix"><path codeLine="41" d="M264.54,266.22 C228.94,284.73 193.46,304.84 161,326 C155.17,329.8 154.069,330.359 148.319,334.749 " fill="none" id="PositionUtilities-to-NumFix" style="stroke:#181818;stroke-width:1.0;"/><polygon fill="#181818" points="143.55,338.39,153.1308,336.1078,147.5241,335.3558,148.2761,329.7492,143.55,338.39" style="stroke:#181818;stroke-width:1.0;"/></g><!--link PositionUtilities to HolePositionHelpers--><g id="link_PositionUtilities_HolePositionHelpers"><path codeLine="42" d="M467.54,266.33 C458.15,286.66 451.1375,301.8337 442.5675,320.3737 " fill="none" id="PositionUtilities-to-HolePositionHelpers" style="stroke:#181818;stroke-width:1.0;"/><polygon fill="#181818" points="440.05,325.82,447.4571,319.3289,442.1479,321.2814,440.1954,315.9722,440.05,325.82" style="stroke:#181818;stroke-width:1.0;"/></g><!--link PositionUtilities to Params--><g id="link_PositionUtilities_Params"><path codeLine="43" d="M721.34,266.16 C749.46,284.75 777.18,304.9 802,326 C817.24,338.96 828.1489,351.4464 838.7389,365.1964 " fill="none" id="PositionUtilities-to-Params" style="stroke:#181818;stroke-width:1.0;"/><polygon fill="#181818" points="842.4,369.95,840.0774,360.3789,839.3491,365.9887,833.7393,365.2604,842.4,369.95" style="stroke:#181818;stroke-width:1.0;"/></g><!--link NumFix to GMN15--><g id="link_NumFix_GMN15"><path d="M126.05,334.82 C140.76,319.21 158.58,304.4 178.5,296 C252.11,264.95 819.8,277.44 897.5,296 C952.62,309.16 1009.81,340.72 1047.58,364.49 " fill="none" id="NumFix-GMN15" style="stroke:#181818;stroke-width:1.0;stroke-dasharray:7.0,7.0;"/></g><!--link HolePositionHelpers to GMN18--><g id="link_HolePositionHelpers_GMN18"><path d="M565.44,325.9 C600.67,313.5 638.35,302.46 674.5,296 C800.07,273.57 1125.57,261.98 1248.5,296 C1302.08,310.83 1355.75,348.4 1386.32,372.48 " fill="none" id="HolePositionHelpers-GMN18" style="stroke:#181818;stroke-width:1.0;stroke-dasharray:7.0,7.0;"/></g><!--SRC=[bLLDJnD16BxtLqouM2FemHi74oCs9Q78GPB2PJBi3cNYiBlkp9eIGq9HuO29YKTlnZzGQPUMKkfVcFr7lk_iXrlQAgRPpkmpp_kydvq-8DkD3MBwPcYwffUSmFSOFbs4Rf8lP5-q_T3beOgqaEf9u2kXXUzHV1MQgyV1KQKICESDQt6oDCrU8kyhX3YIAKMsCiDjQoUuicU4F7AOT2B9DAU5DgXK9VTQ-g09Pgl45OvU9iAb1xwa8NyRSQLNYJuAm7qjyXmqUWrl3nSfAfJaQeueVjEzI4WtuzpVsp9femCEXf6NkMvnJJDqnjaiXTfQxHtzZMfZewtGZu8i2OlCS0lDBE95cYalhJDpMQ1vM6tdPzD9LqjXf6fKAAgahwlPcX7ghpPUqhNrXZKuXgVe-cPqM1FjhDKhcziDMbjlqiRp5wcXy20G9eNYkI_cklds7PCHdvMi-vBdmrJdCe1XoqSfYxzK1AWOW7bwc8ZBfMPJemQGPa9MOG7kAe6f3fU9RGrtaP13mkKUJ8BIOLcmNcl-otIQllD_zDtxq1TMA2_D-XgWfQsRxfi5kbFiTjDT9ZdxkrrPUJRbOY4fRVwzDB96BkHkiP0TgifnfUBvcfDGj0uqyVTdsQ1WVYIdS9lTc65ocbpazvYzsNwQYSMI3Z6_pCGCW7C6t8cvXTq9h9V0Whs9pPYO4K0n46DpPRge_1qOVHC3V8Ng1EGwG4Ups-J2n2Jvc7m0O6HLXzPfqadEmUGKhzIop-kx-jnp2MPtDyUYZEOR98LwdL8si8AupQW7nnD0kv3mPnlMDRgChPSnFBSvE7gAhKs56yp9QrIG- -3c7E8t8-1Z8J633ZYxn2pAOSSWXw4DpI1D3rqFqa82FyPtg17gzCo4u3-BjPyiJ7V-M9Yle8BwOwjKQC-l-xoUWmWMgP_s0iz1QtYd2GIHOV9fgbKfyq_0lm40]--></g></svg>