<?xml version="1.0" encoding="us-ascii" standalone="no"?><svg xmlns="http://www.w3.org/2000/svg" xmlns:xlink="http://www.w3.org/1999/xlink" contentStyleType="text/css" height="657px" preserveAspectRatio="none" style="width:1154px;height:657px;background:#FFFFFF;" version="1.1" viewBox="0 0 1154 657" width="1154px" zoomAndPan="magnify"><defs/><g><!--cluster fixordersutils--><g id="cluster_fixordersutils"><path d="M8.5,73.16 L103.5,73.16 A3.75,3.75 0 0 1 106,75.66 L113,96.7694 L606.5,96.7694 A2.5,2.5 0 0 1 609,99.2694 L609,647.66 A2.5,2.5 0 0 1 606.5,650.16 L8.5,650.16 A2.5,2.5 0 0 1 6,647.66 L6,75.66 A2.5,2.5 0 0 1 8.5,73.16 " fill="none" style="stroke:#000000;stroke-width:1.5;"/><line style="stroke:#000000;stroke-width:1.5;" x1="6" x2="113" y1="96.7694" y2="96.7694"/><text fill="#000000" font-family="sans-serif" font-size="14" font-weight="bold" lengthAdjust="spacing" textLength="94" x="10" y="89.6932">fixordersutils</text></g><!--class FixParsAdapter--><g id="elem_FixParsAdapter"><rect codeLine="4" fill="#F1F1F1" height="206.4844" id="FixParsAdapter" rx="2.5" ry="2.5" style="stroke:#181818;stroke-width:0.5;" width="129" x="22.5" y="428.16"/><ellipse cx="37.5" cy="444.16" fill="#ADD1B2" rx="11" ry="11" style="stroke:#181818;stroke-width:1.0;"/><path d="M40.2656,440.035 Q40.4219,439.8162 40.6094,439.7069 Q40.7969,439.5975 41.0156,439.5975 Q41.3906,439.5975 41.625,439.8553 Q41.8594,440.1131 41.8594,440.7225 L41.8594,442.1756 Q41.8594,442.785 41.625,443.0506 Q41.3906,443.3162 41.0156,443.3162 Q40.6719,443.3162 40.4688,443.1131 Q40.2656,442.9256 40.1563,442.41 Q40.1094,442.0506 39.9219,441.8631 Q39.5938,441.4881 38.9844,441.2694 Q38.375,441.0506 37.75,441.0506 Q36.9844,441.0506 36.3516,441.3787 Q35.7188,441.7069 35.2266,442.4569 Q34.7344,443.2069 34.7344,444.2381 L34.7344,445.3319 Q34.7344,446.5662 35.625,447.3866 Q36.5156,448.2069 38.1094,448.2069 Q39.0469,448.2069 39.7031,447.9569 Q40.0938,447.8006 40.5156,447.3631 Q40.7813,447.0975 40.9297,447.0194 Q41.0781,446.9412 41.2813,446.9412 Q41.6094,446.9412 41.8672,447.1991 Q42.125,447.4569 42.125,447.8006 Q42.125,448.1444 41.7813,448.5506 Q41.2813,449.1287 40.4844,449.4569 Q39.4063,449.91 38.1094,449.91 Q36.5938,449.91 35.3906,449.285 Q34.4063,448.785 33.7188,447.7147 Q33.0313,446.6444 33.0313,445.3631 L33.0313,444.2069 Q33.0313,442.8787 33.6484,441.7303 Q34.2656,440.5819 35.3594,439.9647 Q36.4531,439.3475 37.6875,439.3475 Q38.4219,439.3475 39.0703,439.5116 Q39.7188,439.6756 40.2656,440.035 Z " fill="#000000"/><text fill="#000000" font-family="sans-serif" font-size="14" lengthAdjust="spacing" textLength="97" x="51.5" y="449.8885">FixParsAdapter</text><line style="stroke:#181818;stroke-width:0.5;" x1="23.5" x2="150.5" y1="460.16" y2="460.16"/><rect fill="none" height="6" style="stroke:#C82930;stroke-width:1.0;" width="6" x="30.5" y="471.4647"/><text fill="#000000" font-family="sans-serif" font-size="14" lengthAdjust="spacing" textLength="101" x="42.5" y="478.6932">arr: k3.VarArray</text><ellipse cx="33.5" cy="492.0741" fill="none" rx="3" ry="3" style="stroke:#038048;stroke-width:1.0;"/><text fill="#000000" font-family="sans-serif" font-size="14" lengthAdjust="spacing" textLength="32" x="42.5" y="496.3026">fix_id</text><ellipse cx="33.5" cy="509.6834" fill="none" rx="3" ry="3" style="stroke:#038048;stroke-width:1.0;"/><text fill="#000000" font-family="sans-serif" font-size="14" lengthAdjust="spacing" textLength="42" x="42.5" y="513.912">unit_id</text><ellipse cx="33.5" cy="527.2928" fill="none" rx="3" ry="3" style="stroke:#038048;stroke-width:1.0;"/><text fill="#000000" font-family="sans-serif" font-size="14" lengthAdjust="spacing" textLength="56" x="42.5" y="531.5213">put_from</text><ellipse cx="33.5" cy="544.9022" fill="none" rx="3" ry="3" style="stroke:#038048;stroke-width:1.0;"/><text fill="#000000" font-family="sans-serif" font-size="14" lengthAdjust="spacing" textLength="53" x="42.5" y="549.1307">mirrored</text><ellipse cx="33.5" cy="562.5116" fill="none" rx="3" ry="3" style="stroke:#038048;stroke-width:1.0;"/><text fill="#000000" font-family="sans-serif" font-size="14" lengthAdjust="spacing" textLength="35" x="42.5" y="566.7401">offset</text><ellipse cx="33.5" cy="580.1209" fill="none" rx="3" ry="3" style="stroke:#038048;stroke-width:1.0;"/><text fill="#000000" font-family="sans-serif" font-size="14" lengthAdjust="spacing" textLength="39" x="42.5" y="584.3495">length</text><ellipse cx="33.5" cy="597.7303" fill="none" rx="3" ry="3" style="stroke:#038048;stroke-width:1.0;"/><text fill="#000000" font-family="sans-serif" font-size="14" lengthAdjust="spacing" textLength="81" x="42.5" y="601.9588">contact_spot</text><line style="stroke:#181818;stroke-width:0.5;" x1="23.5" x2="150.5" y1="609.035" y2="609.035"/><ellipse cx="33.5" cy="623.3397" fill="#84BE84" rx="3" ry="3" style="stroke:#038048;stroke-width:1.0;"/><text fill="#000000" font-family="sans-serif" font-size="14" lengthAdjust="spacing" textLength="95" x="42.5" y="627.5682">__post_init__()</text></g><!--class _Params--><g id="elem__Params"><rect codeLine="16" fill="#F1F1F1" height="259.3125" id="_Params" rx="2.5" ry="2.5" style="stroke:#181818;stroke-width:0.5;" width="156" x="373" y="109.16"/><ellipse cx="418.75" cy="125.16" fill="#ADD1B2" rx="11" ry="11" style="stroke:#181818;stroke-width:1.0;"/><path d="M421.5156,121.035 Q421.6719,120.8162 421.8594,120.7069 Q422.0469,120.5975 422.2656,120.5975 Q422.6406,120.5975 422.875,120.8553 Q423.1094,121.1131 423.1094,121.7225 L423.1094,123.1756 Q423.1094,123.785 422.875,124.0506 Q422.6406,124.3162 422.2656,124.3162 Q421.9219,124.3162 421.7188,124.1131 Q421.5156,123.9256 421.4063,123.41 Q421.3594,123.0506 421.1719,122.8631 Q420.8438,122.4881 420.2344,122.2694 Q419.625,122.0506 419,122.0506 Q418.2344,122.0506 417.6016,122.3787 Q416.9688,122.7069 416.4766,123.4569 Q415.9844,124.2069 415.9844,125.2381 L415.9844,126.3319 Q415.9844,127.5662 416.875,128.3866 Q417.7656,129.2069 419.3594,129.2069 Q420.2969,129.2069 420.9531,128.9569 Q421.3438,128.8006 421.7656,128.3631 Q422.0313,128.0975 422.1797,128.0194 Q422.3281,127.9412 422.5313,127.9412 Q422.8594,127.9412 423.1172,128.1991 Q423.375,128.4569 423.375,128.8006 Q423.375,129.1444 423.0313,129.5506 Q422.5313,130.1287 421.7344,130.4569 Q420.6563,130.91 419.3594,130.91 Q417.8438,130.91 416.6406,130.285 Q415.6563,129.785 414.9688,128.7147 Q414.2813,127.6444 414.2813,126.3631 L414.2813,125.2069 Q414.2813,123.8787 414.8984,122.7303 Q415.5156,121.5819 416.6094,120.9647 Q417.7031,120.3475 418.9375,120.3475 Q419.6719,120.3475 420.3203,120.5116 Q420.9688,120.6756 421.5156,121.035 Z " fill="#000000"/><text fill="#000000" font-family="sans-serif" font-size="14" lengthAdjust="spacing" textLength="56" x="439.25" y="130.8885">_Params</text><line style="stroke:#181818;stroke-width:0.5;" x1="374" x2="528" y1="141.16" y2="141.16"/><rect fill="none" height="6" style="stroke:#C82930;stroke-width:1.0;" width="6" x="381" y="152.4647"/><text fill="#000000" font-family="sans-serif" font-size="14" lengthAdjust="spacing" textLength="93" x="393" y="159.6932">Length: k3.Var</text><rect fill="none" height="6" style="stroke:#C82930;stroke-width:1.0;" width="6" x="381" y="170.0741"/><text fill="#000000" font-family="sans-serif" font-size="14" lengthAdjust="spacing" textLength="93" x="393" y="177.3026">hPanel: k3.Var</text><rect fill="none" height="6" style="stroke:#C82930;stroke-width:1.0;" width="6" x="381" y="187.6834"/><text fill="#000000" font-family="sans-serif" font-size="14" lengthAdjust="spacing" textLength="76" x="393" y="194.912">Poly: k3.Var</text><rect fill="none" height="6" style="stroke:#C82930;stroke-width:1.0;" width="6" x="381" y="205.2928"/><text fill="#000000" font-family="sans-serif" font-size="14" lengthAdjust="spacing" textLength="77" x="393" y="212.5213">Side: k3.Var</text><rect fill="none" height="6" style="stroke:#C82930;stroke-width:1.0;" width="6" x="381" y="222.9022"/><text fill="#000000" font-family="sans-serif" font-size="14" lengthAdjust="spacing" textLength="116" x="393" y="230.1307">IDHol: k3.VarArray</text><rect fill="none" height="6" style="stroke:#C82930;stroke-width:1.0;" width="6" x="381" y="240.5116"/><text fill="#000000" font-family="sans-serif" font-size="14" lengthAdjust="spacing" textLength="111" x="393" y="247.7401">XHol: k3.VarArray</text><rect fill="none" height="6" style="stroke:#C82930;stroke-width:1.0;" width="6" x="381" y="258.1209"/><text fill="#000000" font-family="sans-serif" font-size="14" lengthAdjust="spacing" textLength="112" x="393" y="265.3495">YHol: k3.VarArray</text><rect fill="none" height="6" style="stroke:#C82930;stroke-width:1.0;" width="6" x="381" y="275.7303"/><text fill="#000000" font-family="sans-serif" font-size="14" lengthAdjust="spacing" textLength="111" x="393" y="282.9588">ZHol: k3.VarArray</text><rect fill="none" height="6" style="stroke:#C82930;stroke-width:1.0;" width="6" x="381" y="293.3397"/><text fill="#000000" font-family="sans-serif" font-size="14" lengthAdjust="spacing" textLength="130" x="393" y="300.5682">FixPars: k3.VarArray</text><rect fill="none" height="6" style="stroke:#C82930;stroke-width:1.0;" width="6" x="381" y="310.9491"/><text fill="#000000" font-family="sans-serif" font-size="14" lengthAdjust="spacing" textLength="75" x="393" y="318.1776">is_slot: bool</text><rect fill="none" height="6" style="stroke:#C82930;stroke-width:1.0;" width="6" x="381" y="328.5584"/><text fill="#000000" font-family="sans-serif" font-size="14" lengthAdjust="spacing" textLength="101" x="393" y="335.787">length_with_slot</text><line style="stroke:#181818;stroke-width:0.5;" x1="374" x2="528" y1="342.8631" y2="342.8631"/><ellipse cx="384" cy="357.1678" fill="#84BE84" rx="3" ry="3" style="stroke:#038048;stroke-width:1.0;"/><text fill="#000000" font-family="sans-serif" font-size="14" lengthAdjust="spacing" textLength="95" x="393" y="361.3963">__post_init__()</text></g><!--class Params--><g id="elem_Params"><rect codeLine="31" fill="#F1F1F1" height="65.6094" id="Params" rx="2.5" ry="2.5" style="stroke:#181818;stroke-width:0.5;" width="137" x="200.5" y="205.66"/><ellipse cx="241.15" cy="221.66" fill="#ADD1B2" rx="11" ry="11" style="stroke:#181818;stroke-width:1.0;"/><path d="M243.9156,217.535 Q244.0719,217.3162 244.2594,217.2069 Q244.4469,217.0975 244.6656,217.0975 Q245.0406,217.0975 245.275,217.3553 Q245.5094,217.6131 245.5094,218.2225 L245.5094,219.6756 Q245.5094,220.285 245.275,220.5506 Q245.0406,220.8162 244.6656,220.8162 Q244.3219,220.8162 244.1188,220.6131 Q243.9156,220.4256 243.8063,219.91 Q243.7594,219.5506 243.5719,219.3631 Q243.2438,218.9881 242.6344,218.7694 Q242.025,218.5506 241.4,218.5506 Q240.6344,218.5506 240.0016,218.8787 Q239.3688,219.2069 238.8766,219.9569 Q238.3844,220.7069 238.3844,221.7381 L238.3844,222.8319 Q238.3844,224.0662 239.275,224.8866 Q240.1656,225.7069 241.7594,225.7069 Q242.6969,225.7069 243.3531,225.4569 Q243.7438,225.3006 244.1656,224.8631 Q244.4313,224.5975 244.5797,224.5194 Q244.7281,224.4412 244.9313,224.4412 Q245.2594,224.4412 245.5172,224.6991 Q245.775,224.9569 245.775,225.3006 Q245.775,225.6444 245.4313,226.0506 Q244.9313,226.6287 244.1344,226.9569 Q243.0563,227.41 241.7594,227.41 Q240.2438,227.41 239.0406,226.785 Q238.0563,226.285 237.3688,225.2147 Q236.6813,224.1444 236.6813,222.8631 L236.6813,221.7069 Q236.6813,220.3787 237.2984,219.2303 Q237.9156,218.0819 239.0094,217.4647 Q240.1031,216.8475 241.3375,216.8475 Q242.0719,216.8475 242.7203,217.0116 Q243.3688,217.1756 243.9156,217.535 Z " fill="#000000"/><text fill="#000000" font-family="sans-serif" font-size="14" lengthAdjust="spacing" textLength="48" x="260.85" y="227.3885">Params</text><line style="stroke:#181818;stroke-width:0.5;" x1="201.5" x2="336.5" y1="237.66" y2="237.66"/><rect fill="none" height="6" style="stroke:#C82930;stroke-width:1.0;" width="6" x="208.5" y="248.9647"/><text fill="#000000" font-family="sans-serif" font-size="14" lengthAdjust="spacing" textLength="111" x="220.5" y="256.1932">params: _Params</text><line style="stroke:#181818;stroke-width:0.5;" x1="201.5" x2="336.5" y1="263.2694" y2="263.2694"/></g><!--class get_length_with_slot--><g id="elem_get_length_with_slot"><rect codeLine="35" fill="#F1F1F1" height="65.6094" id="get_length_with_slot" rx="2.5" ry="2.5" style="stroke:#181818;stroke-width:0.5;" width="406" x="187" y="498.16"/><ellipse cx="321.25" cy="514.16" fill="#ADD1B2" rx="11" ry="11" style="stroke:#181818;stroke-width:1.0;"/><path d="M324.0156,510.035 Q324.1719,509.8162 324.3594,509.7069 Q324.5469,509.5975 324.7656,509.5975 Q325.1406,509.5975 325.375,509.8553 Q325.6094,510.1131 325.6094,510.7225 L325.6094,512.1756 Q325.6094,512.785 325.375,513.0506 Q325.1406,513.3163 324.7656,513.3163 Q324.4219,513.3163 324.2188,513.1131 Q324.0156,512.9256 323.9063,512.41 Q323.8594,512.0506 323.6719,511.8631 Q323.3438,511.4881 322.7344,511.2694 Q322.125,511.0506 321.5,511.0506 Q320.7344,511.0506 320.1016,511.3787 Q319.4688,511.7069 318.9766,512.4569 Q318.4844,513.2069 318.4844,514.2381 L318.4844,515.3319 Q318.4844,516.5663 319.375,517.3866 Q320.2656,518.2069 321.8594,518.2069 Q322.7969,518.2069 323.4531,517.9569 Q323.8438,517.8006 324.2656,517.3631 Q324.5313,517.0975 324.6797,517.0194 Q324.8281,516.9413 325.0313,516.9413 Q325.3594,516.9413 325.6172,517.1991 Q325.875,517.4569 325.875,517.8006 Q325.875,518.1444 325.5313,518.5506 Q325.0313,519.1288 324.2344,519.4569 Q323.1563,519.91 321.8594,519.91 Q320.3438,519.91 319.1406,519.285 Q318.1563,518.785 317.4688,517.7147 Q316.7813,516.6444 316.7813,515.3631 L316.7813,514.2069 Q316.7813,512.8788 317.3984,511.7303 Q318.0156,510.5819 319.1094,509.9647 Q320.2031,509.3475 321.4375,509.3475 Q322.1719,509.3475 322.8203,509.5116 Q323.4688,509.6756 324.0156,510.035 Z " fill="#000000"/><text fill="#000000" font-family="sans-serif" font-size="14" lengthAdjust="spacing" textLength="129" x="341.75" y="519.8885">get_length_with_slot</text><line style="stroke:#181818;stroke-width:0.5;" x1="188" x2="592" y1="530.16" y2="530.16"/><line style="stroke:#181818;stroke-width:0.5;" x1="188" x2="592" y1="538.16" y2="538.16"/><ellipse cx="198" cy="552.4647" fill="#84BE84" rx="3" ry="3" style="stroke:#038048;stroke-width:1.0;"/><text fill="#000000" font-family="sans-serif" font-size="14" lengthAdjust="spacing" textLength="380" x="207" y="556.6932">get_length_with_slot(panel: k3.Group, length: float, side: int)</text></g><!--class kvar--><g id="elem_kvar"><rect codeLine="39" fill="#F1F1F1" height="65.6094" id="kvar" rx="2.5" ry="2.5" style="stroke:#181818;stroke-width:0.5;" width="70" x="89" y="205.66"/><ellipse cx="108.95" cy="221.66" fill="#ADD1B2" rx="11" ry="11" style="stroke:#181818;stroke-width:1.0;"/><path d="M111.7156,217.535 Q111.8719,217.3162 112.0594,217.2069 Q112.2469,217.0975 112.4656,217.0975 Q112.8406,217.0975 113.075,217.3553 Q113.3094,217.6131 113.3094,218.2225 L113.3094,219.6756 Q113.3094,220.285 113.075,220.5506 Q112.8406,220.8162 112.4656,220.8162 Q112.1219,220.8162 111.9188,220.6131 Q111.7156,220.4256 111.6063,219.91 Q111.5594,219.5506 111.3719,219.3631 Q111.0438,218.9881 110.4344,218.7694 Q109.825,218.5506 109.2,218.5506 Q108.4344,218.5506 107.8016,218.8787 Q107.1688,219.2069 106.6766,219.9569 Q106.1844,220.7069 106.1844,221.7381 L106.1844,222.8319 Q106.1844,224.0662 107.075,224.8866 Q107.9656,225.7069 109.5594,225.7069 Q110.4969,225.7069 111.1531,225.4569 Q111.5438,225.3006 111.9656,224.8631 Q112.2313,224.5975 112.3797,224.5194 Q112.5281,224.4412 112.7313,224.4412 Q113.0594,224.4412 113.3172,224.6991 Q113.575,224.9569 113.575,225.3006 Q113.575,225.6444 113.2313,226.0506 Q112.7313,226.6287 111.9344,226.9569 Q110.8563,227.41 109.5594,227.41 Q108.0438,227.41 106.8406,226.785 Q105.8563,226.285 105.1688,225.2147 Q104.4813,224.1444 104.4813,222.8631 L104.4813,221.7069 Q104.4813,220.3787 105.0984,219.2303 Q105.7156,218.0819 106.8094,217.4647 Q107.9031,216.8475 109.1375,216.8475 Q109.8719,216.8475 110.5203,217.0116 Q111.1688,217.1756 111.7156,217.535 Z " fill="#000000"/><text fill="#000000" font-family="sans-serif" font-size="14" lengthAdjust="spacing" textLength="27" x="124.05" y="227.3885">kvar</text><line style="stroke:#181818;stroke-width:0.5;" x1="90" x2="158" y1="237.66" y2="237.66"/><line style="stroke:#181818;stroke-width:0.5;" x1="90" x2="158" y1="245.66" y2="245.66"/><ellipse cx="100" cy="259.9647" fill="#84BE84" rx="3" ry="3" style="stroke:#038048;stroke-width:1.0;"/><text fill="#000000" font-family="sans-serif" font-size="14" lengthAdjust="spacing" textLength="44" x="109" y="264.1932">kvar(v)</text></g><g id="elem_GMN10"><path d="M628.5,509.66 L628.5,552.3631 L921.5,552.3631 L921.5,519.66 L911.5,509.66 L628.5,509.66 " fill="#FEFFDD" style="stroke:#181818;stroke-width:0.5;"/><path d="M911.5,509.66 L911.5,519.66 L921.5,519.66 L911.5,509.66 " fill="#FEFFDD" style="stroke:#181818;stroke-width:1.0;"/><text fill="#000000" font-family="sans-serif" font-size="13" lengthAdjust="spacing" textLength="268" x="634.5" y="528.1551">&#1050;&#1083;&#1072;&#1089;&#1089;-&#1072;&#1076;&#1072;&#1087;&#1090;&#1077;&#1088; &#1076;&#1083;&#1103; &#1088;&#1072;&#1089;&#1096;&#1080;&#1088;&#1077;&#1085;&#1099;&#1093; &#1087;&#1072;&#1088;&#1072;&#1084;&#1077;&#1090;&#1088;&#1086;&#1074;</text><text fill="#000000" font-family="sans-serif" font-size="13" lengthAdjust="spacing" textLength="228" x="634.5" y="544.5067">&#1082;&#1088;&#1077;&#1087;&#1077;&#1078;&#1072; &#1074; &#1087;&#1088;&#1072;&#1074;&#1080;&#1083;&#1077; &#1089; 9-&#1102; &#1087;&#1072;&#1088;&#1072;&#1084;&#1077;&#1088;&#1072;&#1084;&#1080;</text></g><g id="elem_GMN13"><path d="M625,217.16 L625,234.66 L529.05,238.66 L625,242.66 L625,259.8631 A0,0 0 0 0 625,259.8631 L899,259.8631 A0,0 0 0 0 899,259.8631 L899,227.16 L889,217.16 L625,217.16 A0,0 0 0 0 625,217.16 " fill="#FEFFDD" style="stroke:#181818;stroke-width:0.5;"/><path d="M889,217.16 L889,227.16 L899,227.16 L889,217.16 " fill="#FEFFDD" style="stroke:#181818;stroke-width:0.5;"/><text fill="#000000" font-family="sans-serif" font-size="13" lengthAdjust="spacing" textLength="203" x="631" y="235.6551">&#1050;&#1083;&#1072;&#1089;&#1089; &#1076;&#1072;&#1085;&#1085;&#1099;&#1093; &#1087;&#1072;&#1088;&#1072;&#1084;&#1077;&#1090;&#1088;&#1086;&#1074; &#1079;&#1072;&#1082;&#1086;&#1085;&#1072;</text><text fill="#000000" font-family="sans-serif" font-size="13" lengthAdjust="spacing" textLength="253" x="631" y="252.0067">&#1088;&#1072;&#1089;&#1089;&#1090;&#1072;&#1085;&#1086;&#1074;&#1082;&#1080; &#1082;&#1088;&#1077;&#1087;&#1077;&#1078;&#1072; &#1087;&#1086; 8-&#1084;&#1080; &#1087;&#1072;&#1088;&#1072;&#1084;&#1077;&#1090;&#1088;&#1072;&#1084;</text></g><g id="elem_GMN16"><path d="M934.5,217.16 L934.5,259.8631 L1147.5,259.8631 L1147.5,227.16 L1137.5,217.16 L934.5,217.16 " fill="#FEFFDD" style="stroke:#181818;stroke-width:0.5;"/><path d="M1137.5,217.16 L1137.5,227.16 L1147.5,227.16 L1137.5,217.16 " fill="#FEFFDD" style="stroke:#181818;stroke-width:1.0;"/><text fill="#000000" font-family="sans-serif" font-size="13" lengthAdjust="spacing" textLength="188" x="940.5" y="235.6551">&#1061;&#1088;&#1072;&#1085;&#1080;&#1090;&#1077;&#1083;&#1100; 9-&#1090;&#1080; &#1087;&#1072;&#1088;&#1072;&#1084;&#1077;&#1090;&#1088;&#1086;&#1074; &#1076;&#1083;&#1103;</text><text fill="#000000" font-family="sans-serif" font-size="13" lengthAdjust="spacing" textLength="186" x="940.5" y="252.0067">&#1088;&#1072;&#1089;&#1089;&#1090;&#1072;&#1085;&#1086;&#1074;&#1082;&#1080; &#1082;&#1088;&#1077;&#1087;&#1077;&#1078;&#1072; &#1087;&#1086; &#1084;&#1072;&#1082;&#1088;&#1086;</text></g><!--link _Params to FixParsAdapter--><g id="link__Params_FixParsAdapter"><path codeLine="43" d="M372.98,353.39 C367.23,358.73 361.23,363.71 355,368.16 C284.34,418.67 240.55,378.91 169,428.16 C163.01,432.28 161.6709,432.9244 156.1509,437.9644 " fill="none" id="_Params-to-FixParsAdapter" style="stroke:#181818;stroke-width:1.0;"/><polygon fill="#181818" points="151.72,442.01,161.0634,438.8955,155.4124,438.6387,155.6693,432.9876,151.72,442.01" style="stroke:#181818;stroke-width:1.0;"/></g><!--link _Params to get_length_with_slot--><g id="link__Params_get_length_with_slot"><path codeLine="44" d="M423.98,368.35 C413.94,416.15 404.6228,460.508 397.9928,492.088 " fill="none" id="_Params-to-get_length_with_slot" style="stroke:#181818;stroke-width:1.0;"/><polygon fill="#181818" points="396.76,497.96,402.5238,489.9739,397.7873,493.0667,394.6945,488.3302,396.76,497.96" style="stroke:#181818;stroke-width:1.0;"/></g><!--link FixParsAdapter to GMN10--><g id="link_FixParsAdapter_GMN10"><path d="M147.56,428.03 C158.95,416.01 171.93,405.46 186.5,398.16 C266.97,357.86 505.89,370.4 591.5,398.16 C659.43,420.19 723.28,477.84 754.68,509.52 " fill="none" id="FixParsAdapter-GMN10" style="stroke:#181818;stroke-width:1.0;stroke-dasharray:7.0,7.0;"/></g><!--link Params to GMN16--><g id="link_Params_GMN16"><path d="M274.51,205.3 C284.45,157.35 310.46,70.79 372.5,35.16 C423.28,6 847.6,8.04 899.5,35.16 C974.44,74.33 1017.7,173.26 1033.77,217.14 " fill="none" id="Params-GMN16" style="stroke:#181818;stroke-width:1.0;stroke-dasharray:7.0,7.0;"/></g><!--SRC=[bPJFYzD05CVl-IiUUx7IpNhmeZq82-8FMA4WYde9i-sa7PfcXfdfkaKMjWL1KFJktNlfRhLiRVilpFn7lfaahMcZA6NIb-zxy_gPR_9w2ruyEm5pRUPcOgxi9Lv_ucVYf8Nz0Z4xvx9DfHfebgWxGd91fMPK7ObX40ZIwf4EXODosG6y2m1Q2L4A7h7p9f7gk4s4fj8d048YPGDwTuzU4dai9HbwjOvT8jREua7AzEP637GKIzxFxlfCIYvfdkDnhAZEueIc7TtDuXPFDMdfI0cUPwD8S8LDNUUeTXl52rmRqWWvILyLY2U-Lq6PQTqcIMbIrfey6PQLvwnDoyhJXqzuid_Wy5Mr_BfQVbCjvmvNP9YALC9r0quvJp8fSoXwo_3YSl_aJDaOuUyQXL-xnHsgezrVoRVMgt8riV7qiUG3SGX9xdoSSA8FGNaxMQhtk7fdf7YZwYwkdVrMKZpEC7omynBk9AkWWeiWIBcc85cdgu77-otCLxCm4pkoen27vXhNsexDp5uMe-E62TCVp1oZcLdQZ_Ozc3MAsPJDx1YZbPawMdFZYzQulhlfcsAbhvlYP2xC3Em8xeVsSxb1zZqFQDe6XxiBlNr4MrhmhCk_yPWVADnWk4GKt9oVP8JdSpkn1BFpFUQrMS6zq07jjyNeZvHRo6- -SecEePDeuYTtvd5LFu-P-Vn_WExFpUkhBSyl]--></g></svg>