<?xml version="1.0" encoding="us-ascii" standalone="no"?><svg xmlns="http://www.w3.org/2000/svg" xmlns:xlink="http://www.w3.org/1999/xlink" contentStyleType="text/css" height="734px" preserveAspectRatio="none" style="width:1097px;height:734px;background:#FFFFFF;" version="1.1" viewBox="0 0 1097 734" width="1097px" zoomAndPan="magnify"><defs/><g><!--cluster fixordersutils--><g id="cluster_fixordersutils"><path d="M8.5,6 L103.5,6 A3.75,3.75 0 0 1 106,8.5 L113,29.6094 L779.5,29.6094 A2.5,2.5 0 0 1 782,32.1094 L782,724.5 A2.5,2.5 0 0 1 779.5,727 L8.5,727 A2.5,2.5 0 0 1 6,724.5 L6,8.5 A2.5,2.5 0 0 1 8.5,6 " fill="none" style="stroke:#000000;stroke-width:1.5;"/><line style="stroke:#000000;stroke-width:1.5;" x1="6" x2="113" y1="29.6094" y2="29.6094"/><text fill="#000000" font-family="sans-serif" font-size="14" font-weight="bold" lengthAdjust="spacing" textLength="94" x="10" y="22.5332">fixordersutils</text></g><!--class Builders--><g id="elem_Builders"><rect codeLine="4" fill="#F1F1F1" height="224.0938" id="Builders" rx="2.5" ry="2.5" style="stroke:#181818;stroke-width:0.5;" width="744" x="22" y="42"/><ellipse cx="364.25" cy="58" fill="#ADD1B2" rx="11" ry="11" style="stroke:#181818;stroke-width:1.0;"/><path d="M367.0156,53.875 Q367.1719,53.6563 367.3594,53.5469 Q367.5469,53.4375 367.7656,53.4375 Q368.1406,53.4375 368.375,53.6953 Q368.6094,53.9531 368.6094,54.5625 L368.6094,56.0156 Q368.6094,56.625 368.375,56.8906 Q368.1406,57.1563 367.7656,57.1563 Q367.4219,57.1563 367.2188,56.9531 Q367.0156,56.7656 366.9063,56.25 Q366.8594,55.8906 366.6719,55.7031 Q366.3438,55.3281 365.7344,55.1094 Q365.125,54.8906 364.5,54.8906 Q363.7344,54.8906 363.1016,55.2188 Q362.4688,55.5469 361.9766,56.2969 Q361.4844,57.0469 361.4844,58.0781 L361.4844,59.1719 Q361.4844,60.4063 362.375,61.2266 Q363.2656,62.0469 364.8594,62.0469 Q365.7969,62.0469 366.4531,61.7969 Q366.8438,61.6406 367.2656,61.2031 Q367.5313,60.9375 367.6797,60.8594 Q367.8281,60.7813 368.0313,60.7813 Q368.3594,60.7813 368.6172,61.0391 Q368.875,61.2969 368.875,61.6406 Q368.875,61.9844 368.5313,62.3906 Q368.0313,62.9688 367.2344,63.2969 Q366.1563,63.75 364.8594,63.75 Q363.3438,63.75 362.1406,63.125 Q361.1563,62.625 360.4688,61.5547 Q359.7813,60.4844 359.7813,59.2031 L359.7813,58.0469 Q359.7813,56.7188 360.3984,55.5703 Q361.0156,54.4219 362.1094,53.8047 Q363.2031,53.1875 364.4375,53.1875 Q365.1719,53.1875 365.8203,53.3516 Q366.4688,53.5156 367.0156,53.875 Z " fill="#000000"/><text fill="#000000" font-family="sans-serif" font-size="14" lengthAdjust="spacing" textLength="51" x="384.75" y="63.7285">Builders</text><line style="stroke:#181818;stroke-width:0.5;" x1="23" x2="765" y1="74" y2="74"/><line style="stroke:#181818;stroke-width:0.5;" x1="23" x2="765" y1="82" y2="82"/><ellipse cx="33" cy="96.3047" fill="#84BE84" rx="3" ry="3" style="stroke:#038048;stroke-width:1.0;"/><text fill="#000000" font-family="sans-serif" font-size="14" lengthAdjust="spacing" textLength="523" x="42" y="100.5332">build_group_second_fixes(x:float, j:int, count_fixes:int, fix_details_id:iter, l_posit:list)</text><ellipse cx="33" cy="113.9141" fill="#84BE84" rx="3" ry="3" style="stroke:#038048;stroke-width:1.0;"/><text fill="#000000" font-family="sans-serif" font-size="14" lengthAdjust="spacing" textLength="504" x="42" y="118.1426">build_group_chet_fixes(x:float, j:int, count_fixes:int, fix_details_id:iter, l_posit:list)</text><ellipse cx="33" cy="131.5234" fill="#84BE84" rx="3" ry="3" style="stroke:#038048;stroke-width:1.0;"/><text fill="#000000" font-family="sans-serif" font-size="14" lengthAdjust="spacing" textLength="524" x="42" y="135.752">build_group_notchet_fixes(x:float, j:int, count_fixes:int, fix_details_id:iter, l_posit:list)</text><ellipse cx="33" cy="149.1328" fill="#84BE84" rx="3" ry="3" style="stroke:#038048;stroke-width:1.0;"/><text fill="#000000" font-family="sans-serif" font-size="14" lengthAdjust="spacing" textLength="551" x="42" y="153.3613">build_group_notchet_fixes_nm(x:float, j:int, count_fixes:int, fix_details_id:iter, l_posit:list)</text><ellipse cx="33" cy="166.7422" fill="#84BE84" rx="3" ry="3" style="stroke:#038048;stroke-width:1.0;"/><text fill="#000000" font-family="sans-serif" font-size="14" lengthAdjust="spacing" textLength="587" x="42" y="170.9707">build_group_chet_fixes_one_last_fix(x:float, j:int, count_fixes:int, fix_details_id:iter, l_posit:list)</text><ellipse cx="33" cy="184.3516" fill="#84BE84" rx="3" ry="3" style="stroke:#038048;stroke-width:1.0;"/><text fill="#000000" font-family="sans-serif" font-size="14" lengthAdjust="spacing" textLength="718" x="42" y="188.5801">build_group_chet_fixes_one_last_fix_minus_reverce_x32(x:float, j:int, count_fixes:int, fix_details_id:iter, l_posit:list)</text><ellipse cx="33" cy="201.9609" fill="#84BE84" rx="3" ry="3" style="stroke:#038048;stroke-width:1.0;"/><text fill="#000000" font-family="sans-serif" font-size="14" lengthAdjust="spacing" textLength="673" x="42" y="206.1895">build_group_chet_fixes_one_last_fix_reverce_x32(x:float, j:int, count_fixes:int, fix_details_id:iter, l_posit:list)</text><ellipse cx="33" cy="219.5703" fill="#84BE84" rx="3" ry="3" style="stroke:#038048;stroke-width:1.0;"/><text fill="#000000" font-family="sans-serif" font-size="14" lengthAdjust="spacing" textLength="685" x="42" y="223.7988">build_group_chet_fixes_one_skant_fix_reverce_x32(x:float, j:int, count_fixes:int, fix_details_id:iter, l_posit:list)</text><ellipse cx="33" cy="237.1797" fill="#84BE84" rx="3" ry="3" style="stroke:#038048;stroke-width:1.0;"/><text fill="#000000" font-family="sans-serif" font-size="14" lengthAdjust="spacing" textLength="572" x="42" y="241.4082">build_group_one_fix_reverce_x32(x:float, j:int, count_fixes:int, fix_details_id:iter, l_posit:list)</text><ellipse cx="33" cy="254.7891" fill="#84BE84" rx="3" ry="3" style="stroke:#038048;stroke-width:1.0;"/><text fill="#000000" font-family="sans-serif" font-size="14" lengthAdjust="spacing" textLength="424" x="42" y="259.0176">build_fixes(x:float, j:int, count_fixes:int, fix_details_id:iter, l_posit:list)</text></g><!--class BuilderHelpers--><g id="elem_BuilderHelpers"><rect codeLine="17" fill="#F1F1F1" height="188.875" id="BuilderHelpers" rx="2.5" ry="2.5" style="stroke:#181818;stroke-width:0.5;" width="512" x="138" y="326"/><ellipse cx="343.75" cy="342" fill="#ADD1B2" rx="11" ry="11" style="stroke:#181818;stroke-width:1.0;"/><path d="M346.5156,337.875 Q346.6719,337.6563 346.8594,337.5469 Q347.0469,337.4375 347.2656,337.4375 Q347.6406,337.4375 347.875,337.6953 Q348.1094,337.9531 348.1094,338.5625 L348.1094,340.0156 Q348.1094,340.625 347.875,340.8906 Q347.6406,341.1563 347.2656,341.1563 Q346.9219,341.1563 346.7188,340.9531 Q346.5156,340.7656 346.4063,340.25 Q346.3594,339.8906 346.1719,339.7031 Q345.8438,339.3281 345.2344,339.1094 Q344.625,338.8906 344,338.8906 Q343.2344,338.8906 342.6016,339.2188 Q341.9688,339.5469 341.4766,340.2969 Q340.9844,341.0469 340.9844,342.0781 L340.9844,343.1719 Q340.9844,344.4063 341.875,345.2266 Q342.7656,346.0469 344.3594,346.0469 Q345.2969,346.0469 345.9531,345.7969 Q346.3438,345.6406 346.7656,345.2031 Q347.0313,344.9375 347.1797,344.8594 Q347.3281,344.7813 347.5313,344.7813 Q347.8594,344.7813 348.1172,345.0391 Q348.375,345.2969 348.375,345.6406 Q348.375,345.9844 348.0313,346.3906 Q347.5313,346.9688 346.7344,347.2969 Q345.6563,347.75 344.3594,347.75 Q342.8438,347.75 341.6406,347.125 Q340.6563,346.625 339.9688,345.5547 Q339.2813,344.4844 339.2813,343.2031 L339.2813,342.0469 Q339.2813,340.7188 339.8984,339.5703 Q340.5156,338.4219 341.6094,337.8047 Q342.7031,337.1875 343.9375,337.1875 Q344.6719,337.1875 345.3203,337.3516 Q345.9688,337.5156 346.5156,337.875 Z " fill="#000000"/><text fill="#000000" font-family="sans-serif" font-size="14" lengthAdjust="spacing" textLength="92" x="364.25" y="347.7285">BuilderHelpers</text><line style="stroke:#181818;stroke-width:0.5;" x1="139" x2="649" y1="358" y2="358"/><line style="stroke:#181818;stroke-width:0.5;" x1="139" x2="649" y1="366" y2="366"/><ellipse cx="149" cy="380.3047" fill="#84BE84" rx="3" ry="3" style="stroke:#038048;stroke-width:1.0;"/><text fill="#000000" font-family="sans-serif" font-size="14" lengthAdjust="spacing" textLength="88" x="158" y="384.5332">is_Skant(fixid)</text><ellipse cx="149" cy="397.9141" fill="#84BE84" rx="3" ry="3" style="stroke:#038048;stroke-width:1.0;"/><text fill="#000000" font-family="sans-serif" font-size="14" lengthAdjust="spacing" textLength="266" x="158" y="402.1426">get_group_number(j:int, fix_details_id:iter)</text><ellipse cx="149" cy="415.5234" fill="#84BE84" rx="3" ry="3" style="stroke:#038048;stroke-width:1.0;"/><text fill="#000000" font-family="sans-serif" font-size="14" lengthAdjust="spacing" textLength="204" x="158" y="419.752">get_id_hol(det_id, fix_details_id)</text><ellipse cx="149" cy="433.1328" fill="#84BE84" rx="3" ry="3" style="stroke:#038048;stroke-width:1.0;"/><text fill="#000000" font-family="sans-serif" font-size="14" lengthAdjust="spacing" textLength="255" x="158" y="437.3613">get_x_hol(x, _sign, det_id, fix_details_id)</text><ellipse cx="149" cy="450.7422" fill="#84BE84" rx="3" ry="3" style="stroke:#038048;stroke-width:1.0;"/><text fill="#000000" font-family="sans-serif" font-size="14" lengthAdjust="spacing" textLength="200" x="158" y="454.9707">get_y_hol(det_id, fix_details_id)</text><ellipse cx="149" cy="468.3516" fill="#84BE84" rx="3" ry="3" style="stroke:#038048;stroke-width:1.0;"/><text fill="#000000" font-family="sans-serif" font-size="14" lengthAdjust="spacing" textLength="199" x="158" y="472.5801">get_z_hol(det_id, fix_details_id)</text><ellipse cx="149" cy="485.9609" fill="#84BE84" rx="3" ry="3" style="stroke:#038048;stroke-width:1.0;"/><text fill="#000000" font-family="sans-serif" font-size="14" lengthAdjust="spacing" textLength="486" x="158" y="490.1895">get_holePositionParams(x:float, j:int, det_id:tuple, fix_details_id:iter, _sign:int)</text><ellipse cx="149" cy="503.5703" fill="#84BE84" rx="3" ry="3" style="stroke:#038048;stroke-width:1.0;"/><text fill="#000000" font-family="sans-serif" font-size="14" lengthAdjust="spacing" textLength="154" x="158" y="507.7988">_get_sign(j, count_fixes)</text></g><!--class HolePosition--><g id="elem_HolePosition"><rect codeLine="28" fill="#F1F1F1" height="136.0469" id="HolePosition" rx="2.5" ry="2.5" style="stroke:#181818;stroke-width:0.5;" width="110" x="485" y="575"/><ellipse cx="500" cy="591" fill="#ADD1B2" rx="11" ry="11" style="stroke:#181818;stroke-width:1.0;"/><path d="M502.7656,586.875 Q502.9219,586.6563 503.1094,586.5469 Q503.2969,586.4375 503.5156,586.4375 Q503.8906,586.4375 504.125,586.6953 Q504.3594,586.9531 504.3594,587.5625 L504.3594,589.0156 Q504.3594,589.625 504.125,589.8906 Q503.8906,590.1563 503.5156,590.1563 Q503.1719,590.1563 502.9688,589.9531 Q502.7656,589.7656 502.6563,589.25 Q502.6094,588.8906 502.4219,588.7031 Q502.0938,588.3281 501.4844,588.1094 Q500.875,587.8906 500.25,587.8906 Q499.4844,587.8906 498.8516,588.2188 Q498.2188,588.5469 497.7266,589.2969 Q497.2344,590.0469 497.2344,591.0781 L497.2344,592.1719 Q497.2344,593.4063 498.125,594.2266 Q499.0156,595.0469 500.6094,595.0469 Q501.5469,595.0469 502.2031,594.7969 Q502.5938,594.6406 503.0156,594.2031 Q503.2813,593.9375 503.4297,593.8594 Q503.5781,593.7813 503.7813,593.7813 Q504.1094,593.7813 504.3672,594.0391 Q504.625,594.2969 504.625,594.6406 Q504.625,594.9844 504.2813,595.3906 Q503.7813,595.9688 502.9844,596.2969 Q501.9063,596.75 500.6094,596.75 Q499.0938,596.75 497.8906,596.125 Q496.9063,595.625 496.2188,594.5547 Q495.5313,593.4844 495.5313,592.2031 L495.5313,591.0469 Q495.5313,589.7188 496.1484,588.5703 Q496.7656,587.4219 497.8594,586.8047 Q498.9531,586.1875 500.1875,586.1875 Q500.9219,586.1875 501.5703,586.3516 Q502.2188,586.5156 502.7656,586.875 Z " fill="#000000"/><text fill="#000000" font-family="sans-serif" font-size="14" lengthAdjust="spacing" textLength="78" x="514" y="596.7285">HolePosition</text><line style="stroke:#181818;stroke-width:0.5;" x1="486" x2="594" y1="607" y2="607"/><ellipse cx="496" cy="621.3047" fill="none" rx="3" ry="3" style="stroke:#038048;stroke-width:1.0;"/><text fill="#000000" font-family="sans-serif" font-size="14" lengthAdjust="spacing" textLength="33" x="505" y="625.5332">IDHol</text><ellipse cx="496" cy="638.9141" fill="none" rx="3" ry="3" style="stroke:#038048;stroke-width:1.0;"/><text fill="#000000" font-family="sans-serif" font-size="14" lengthAdjust="spacing" textLength="41" x="505" y="643.1426">IDHold</text><ellipse cx="496" cy="656.5234" fill="none" rx="3" ry="3" style="stroke:#038048;stroke-width:1.0;"/><text fill="#000000" font-family="sans-serif" font-size="14" lengthAdjust="spacing" textLength="28" x="505" y="660.752">XHol</text><ellipse cx="496" cy="674.1328" fill="none" rx="3" ry="3" style="stroke:#038048;stroke-width:1.0;"/><text fill="#000000" font-family="sans-serif" font-size="14" lengthAdjust="spacing" textLength="29" x="505" y="678.3613">YHol</text><ellipse cx="496" cy="691.7422" fill="none" rx="3" ry="3" style="stroke:#038048;stroke-width:1.0;"/><text fill="#000000" font-family="sans-serif" font-size="14" lengthAdjust="spacing" textLength="28" x="505" y="695.9707">ZHol</text><line style="stroke:#181818;stroke-width:0.5;" x1="486" x2="594" y1="703.0469" y2="703.0469"/></g><g id="elem_GMN9"><path d="M801.5,124.5 L801.5,150 L766.2,154 L801.5,158 L801.5,183.5547 A0,0 0 0 0 801.5,183.5547 L1082.5,183.5547 A0,0 0 0 0 1082.5,183.5547 L1082.5,134.5 L1072.5,124.5 L801.5,124.5 A0,0 0 0 0 801.5,124.5 " fill="#FEFFDD" style="stroke:#181818;stroke-width:0.5;"/><path d="M1072.5,124.5 L1072.5,134.5 L1082.5,134.5 L1072.5,124.5 " fill="#FEFFDD" style="stroke:#181818;stroke-width:0.5;"/><text fill="#000000" font-family="sans-serif" font-size="13" lengthAdjust="spacing" textLength="260" x="807.5" y="142.9951">&#1055;&#1086;&#1089;&#1090;&#1088;&#1086;&#1080;&#1090;&#1077;&#1083;&#1080; &#1076;&#1083;&#1103; &#1088;&#1072;&#1079;&#1083;&#1080;&#1095;&#1085;&#1099;&#1093; &#1090;&#1080;&#1087;&#1086;&#1074; &#1082;&#1088;&#1077;&#1087;&#1077;&#1078;&#1072;</text><text fill="#000000" font-family="sans-serif" font-size="13" lengthAdjust="spacing" textLength="199" x="807.5" y="159.3467">&#1057;&#1086;&#1076;&#1077;&#1088;&#1078;&#1080;&#1090; &#1092;&#1091;&#1085;&#1082;&#1094;&#1080;&#1080; &#1076;&#1083;&#1103; &#1089;&#1086;&#1079;&#1076;&#1072;&#1085;&#1080;&#1103;</text><text fill="#000000" font-family="sans-serif" font-size="13" lengthAdjust="spacing" textLength="205" x="807.5" y="175.6982">&#1088;&#1072;&#1079;&#1083;&#1080;&#1095;&#1085;&#1099;&#1093; &#1082;&#1086;&#1085;&#1092;&#1080;&#1075;&#1091;&#1088;&#1072;&#1094;&#1080;&#1081; &#1082;&#1088;&#1077;&#1087;&#1077;&#1078;&#1072;</text></g><g id="elem_GMN12"><path d="M798,391 L798,416.5 L650.2,420.5 L798,424.5 L798,450.0547 A0,0 0 0 0 798,450.0547 L1090,450.0547 A0,0 0 0 0 1090,450.0547 L1090,401 L1080,391 L798,391 A0,0 0 0 0 798,391 " fill="#FEFFDD" style="stroke:#181818;stroke-width:0.5;"/><path d="M1080,391 L1080,401 L1090,401 L1080,391 " fill="#FEFFDD" style="stroke:#181818;stroke-width:0.5;"/><text fill="#000000" font-family="sans-serif" font-size="13" lengthAdjust="spacing" textLength="271" x="804" y="409.4951">&#1042;&#1089;&#1087;&#1086;&#1084;&#1086;&#1075;&#1072;&#1090;&#1077;&#1083;&#1100;&#1085;&#1099;&#1077; &#1092;&#1091;&#1085;&#1082;&#1094;&#1080;&#1080; &#1076;&#1083;&#1103; &#1087;&#1086;&#1089;&#1090;&#1088;&#1086;&#1080;&#1090;&#1077;&#1083;&#1077;&#1081;</text><text fill="#000000" font-family="sans-serif" font-size="13" lengthAdjust="spacing" textLength="204" x="804" y="425.8467">&#1055;&#1086;&#1084;&#1086;&#1075;&#1072;&#1102;&#1090; &#1074; &#1089;&#1086;&#1079;&#1076;&#1072;&#1085;&#1080;&#1080; &#1087;&#1072;&#1088;&#1072;&#1084;&#1077;&#1090;&#1088;&#1086;&#1074;</text><text fill="#000000" font-family="sans-serif" font-size="13" lengthAdjust="spacing" textLength="191" x="804" y="442.1982">&#1076;&#1083;&#1103; &#1087;&#1086;&#1079;&#1080;&#1094;&#1080;&#1086;&#1085;&#1080;&#1088;&#1086;&#1074;&#1072;&#1085;&#1080;&#1103; &#1082;&#1088;&#1077;&#1087;&#1077;&#1078;&#1072;</text></g><!--link Builders to HolePosition--><g id="link_Builders_HolePosition"><path codeLine="36" d="M619.7,266.17 C638.81,283.69 655.56,303.57 668,326 C708.74,399.46 700.3,437.46 668,515 C653.07,550.83 627.2347,577.964 599.7447,600.324 " fill="none" id="Builders-to-HolePosition" style="stroke:#181818;stroke-width:1.0;"/><polygon fill="#181818" points="595.09,604.11,604.596,601.534,598.9689,600.955,599.548,595.3278,595.09,604.11" style="stroke:#181818;stroke-width:1.0;"/></g><!--link Builders to BuilderHelpers--><g id="link_Builders_BuilderHelpers"><path codeLine="37" d="M394,266.02 C394,285.96 394,300.55 394,319.93 " fill="none" id="Builders-to-BuilderHelpers" style="stroke:#181818;stroke-width:1.0;"/><polygon fill="#181818" points="394,325.93,398,316.93,394,320.93,390,316.93,394,325.93" style="stroke:#181818;stroke-width:1.0;"/></g><!--link BuilderHelpers to HolePosition--><g id="link_BuilderHelpers_HolePosition"><path codeLine="38" d="M455.92,515.01 C469.21,535.08 479.6884,550.9067 492.1584,569.7467 " fill="none" id="BuilderHelpers-to-HolePosition" style="stroke:#181818;stroke-width:1.0;"/><polygon fill="#181818" points="495.47,574.75,493.8381,565.0373,492.7103,570.5806,487.167,569.4528,495.47,574.75" style="stroke:#181818;stroke-width:1.0;"/></g><!--SRC=[lLRTRjCm5BxlKrYxeOWE9BZh1HU8Yo61D0aX0JTMbhYjkzIEOWTre4di1xW0WSGB8DwWMfSj-sdt2iTlnB6JfcbBnIveLQMrp_dEz_byJkBU8QzUF2Tm2XaCO6W-ulSrVWOsT6L-a1RlopXWiKeq3zM3dOI7TdO_sglL8i_VzTgCRCo2DiY76Y5-w2b5dXHu5oBadgkdxLWc4LNCboAWMCnKlTziXTBJ3T9jSe4_lao4pdDv08SqODf30Sg39jSiRf2GHb9ntGovqdSN5VmEqwla5rAlLOAAtggDeb8mYbldfciLepqk4aLZzex5FgFzHm_NAxzkORNhYJKfMxaL2_tFHs0Vh_ato1OBeyfxX2lwqlfNHq8U52jfex_5KvFqTbXSxouLhLJmW7PaM0_SS1vSmVKThDyWLF6sQ91_5kpTZlVzxM08OjlM9Yx5jXTxlKMtSuwcJgAGBR7QhTsY2sPggMsitftPhOLjsAh8JpRXsLECLeP1FdvTHj-KexVvgA0iJuNDpSSppFEvsSsVPYTtmqBzVgs6Rqn6OjxkQ29R9HtMmYyOcmDpY8VS639p22bSGJOvwDpHTsuZvWkCp5VpYI0aWni4dn2un7oAanJEO639VcFy558CdraoOexD4OmGzncBfgm723l7oG1p6GQmz2zAS8cmaJd6qg4viW17Sp6loqH0R7zBkfpw13zHsIxz6gyXqhbkpJUh1-cInTg21ODIk2YyAxc-OxleoMnlbkO6a_a_YBHWER4DL-WHdpdHiVF3GKflbZNx1m00]--></g></svg>