<?xml version="1.0" encoding="us-ascii" standalone="no"?><svg xmlns="http://www.w3.org/2000/svg" xmlns:xlink="http://www.w3.org/1999/xlink" contentStyleType="text/css" height="611px" preserveAspectRatio="none" style="width:898px;height:611px;background:#FFFFFF;" version="1.1" viewBox="0 0 898 611" width="898px" zoomAndPan="magnify"><defs/><g><!--cluster fixorders--><g id="cluster_fixorders"><path d="M8.5,6 L73.5,6 A3.75,3.75 0 0 1 76,8.5 L83,29.6094 L377.5,29.6094 A2.5,2.5 0 0 1 380,32.1094 L380,601.5 A2.5,2.5 0 0 1 377.5,604 L8.5,604 A2.5,2.5 0 0 1 6,601.5 L6,8.5 A2.5,2.5 0 0 1 8.5,6 " fill="none" style="stroke:#000000;stroke-width:1.5;"/><line style="stroke:#000000;stroke-width:1.5;" x1="6" x2="83" y1="29.6094" y2="29.6094"/><text fill="#000000" font-family="sans-serif" font-size="14" font-weight="bold" lengthAdjust="spacing" textLength="64" x="10" y="22.5332">fixorders</text></g><!--class FixKonfirmatSkant2--><g id="elem_FixKonfirmatSkant2"><rect codeLine="4" fill="#F1F1F1" height="153.6563" id="FixKonfirmatSkant2" rx="2.5" ry="2.5" style="stroke:#181818;stroke-width:0.5;" width="181" x="180.5" y="42"/><ellipse cx="207.65" cy="58" fill="#ADD1B2" rx="11" ry="11" style="stroke:#181818;stroke-width:1.0;"/><path d="M210.4156,53.875 Q210.5719,53.6563 210.7594,53.5469 Q210.9469,53.4375 211.1656,53.4375 Q211.5406,53.4375 211.775,53.6953 Q212.0094,53.9531 212.0094,54.5625 L212.0094,56.0156 Q212.0094,56.625 211.775,56.8906 Q211.5406,57.1563 211.1656,57.1563 Q210.8219,57.1563 210.6188,56.9531 Q210.4156,56.7656 210.3063,56.25 Q210.2594,55.8906 210.0719,55.7031 Q209.7438,55.3281 209.1344,55.1094 Q208.525,54.8906 207.9,54.8906 Q207.1344,54.8906 206.5016,55.2188 Q205.8688,55.5469 205.3766,56.2969 Q204.8844,57.0469 204.8844,58.0781 L204.8844,59.1719 Q204.8844,60.4063 205.775,61.2266 Q206.6656,62.0469 208.2594,62.0469 Q209.1969,62.0469 209.8531,61.7969 Q210.2438,61.6406 210.6656,61.2031 Q210.9313,60.9375 211.0797,60.8594 Q211.2281,60.7813 211.4313,60.7813 Q211.7594,60.7813 212.0172,61.0391 Q212.275,61.2969 212.275,61.6406 Q212.275,61.9844 211.9313,62.3906 Q211.4313,62.9688 210.6344,63.2969 Q209.5563,63.75 208.2594,63.75 Q206.7438,63.75 205.5406,63.125 Q204.5563,62.625 203.8688,61.5547 Q203.1813,60.4844 203.1813,59.2031 L203.1813,58.0469 Q203.1813,56.7188 203.7984,55.5703 Q204.4156,54.4219 205.5094,53.8047 Q206.6031,53.1875 207.8375,53.1875 Q208.5719,53.1875 209.2203,53.3516 Q209.8688,53.5156 210.4156,53.875 Z " fill="#000000"/><text fill="#000000" font-family="sans-serif" font-size="14" lengthAdjust="spacing" textLength="122" x="224.35" y="63.7285">FixKonfirmatSkant2</text><line style="stroke:#181818;stroke-width:0.5;" x1="181.5" x2="360.5" y1="74" y2="74"/><line style="stroke:#181818;stroke-width:0.5;" x1="181.5" x2="360.5" y1="82" y2="82"/><ellipse cx="191.5" cy="96.3047" fill="#84BE84" rx="3" ry="3" style="stroke:#038048;stroke-width:1.0;"/><text fill="#000000" font-family="sans-serif" font-size="14" lengthAdjust="spacing" textLength="40" x="200.5" y="100.5332">main()</text><ellipse cx="191.5" cy="113.9141" fill="#84BE84" rx="3" ry="3" style="stroke:#038048;stroke-width:1.0;"/><text fill="#000000" font-family="sans-serif" font-size="14" lengthAdjust="spacing" textLength="155" x="200.5" y="118.1426">process_order(order_id)</text><ellipse cx="191.5" cy="131.5234" fill="#84BE84" rx="3" ry="3" style="stroke:#038048;stroke-width:1.0;"/><text fill="#000000" font-family="sans-serif" font-size="14" lengthAdjust="spacing" textLength="153" x="200.5" y="135.752">fix_konfirmat_positions()</text><ellipse cx="191.5" cy="149.1328" fill="#84BE84" rx="3" ry="3" style="stroke:#038048;stroke-width:1.0;"/><text fill="#000000" font-family="sans-serif" font-size="14" lengthAdjust="spacing" textLength="137" x="200.5" y="153.3613">fix_shkant_positions()</text><ellipse cx="191.5" cy="166.7422" fill="#84BE84" rx="3" ry="3" style="stroke:#038048;stroke-width:1.0;"/><text fill="#000000" font-family="sans-serif" font-size="14" lengthAdjust="spacing" textLength="106" x="200.5" y="170.9707">validate_fixings()</text><ellipse cx="191.5" cy="184.3516" fill="#84BE84" rx="3" ry="3" style="stroke:#038048;stroke-width:1.0;"/><text fill="#000000" font-family="sans-serif" font-size="14" lengthAdjust="spacing" textLength="143" x="200.5" y="188.5801">update_order_fixings()</text></g><!--class OrderFixingProcessor--><g id="elem_OrderFixingProcessor"><rect codeLine="13" fill="#F1F1F1" height="136.0469" id="OrderFixingProcessor" rx="2.5" ry="2.5" style="stroke:#181818;stroke-width:0.5;" width="179" x="181.5" y="256"/><ellipse cx="200.55" cy="272" fill="#ADD1B2" rx="11" ry="11" style="stroke:#181818;stroke-width:1.0;"/><path d="M203.3156,267.875 Q203.4719,267.6563 203.6594,267.5469 Q203.8469,267.4375 204.0656,267.4375 Q204.4406,267.4375 204.675,267.6953 Q204.9094,267.9531 204.9094,268.5625 L204.9094,270.0156 Q204.9094,270.625 204.675,270.8906 Q204.4406,271.1563 204.0656,271.1563 Q203.7219,271.1563 203.5188,270.9531 Q203.3156,270.7656 203.2063,270.25 Q203.1594,269.8906 202.9719,269.7031 Q202.6438,269.3281 202.0344,269.1094 Q201.425,268.8906 200.8,268.8906 Q200.0344,268.8906 199.4016,269.2188 Q198.7688,269.5469 198.2766,270.2969 Q197.7844,271.0469 197.7844,272.0781 L197.7844,273.1719 Q197.7844,274.4063 198.675,275.2266 Q199.5656,276.0469 201.1594,276.0469 Q202.0969,276.0469 202.7531,275.7969 Q203.1438,275.6406 203.5656,275.2031 Q203.8313,274.9375 203.9797,274.8594 Q204.1281,274.7813 204.3313,274.7813 Q204.6594,274.7813 204.9172,275.0391 Q205.175,275.2969 205.175,275.6406 Q205.175,275.9844 204.8313,276.3906 Q204.3313,276.9688 203.5344,277.2969 Q202.4563,277.75 201.1594,277.75 Q199.6438,277.75 198.4406,277.125 Q197.4563,276.625 196.7688,275.5547 Q196.0813,274.4844 196.0813,273.2031 L196.0813,272.0469 Q196.0813,270.7188 196.6984,269.5703 Q197.3156,268.4219 198.4094,267.8047 Q199.5031,267.1875 200.7375,267.1875 Q201.4719,267.1875 202.1203,267.3516 Q202.7688,267.5156 203.3156,267.875 Z " fill="#000000"/><text fill="#000000" font-family="sans-serif" font-size="14" lengthAdjust="spacing" textLength="138" x="215.45" y="277.7285">OrderFixingProcessor</text><line style="stroke:#181818;stroke-width:0.5;" x1="182.5" x2="359.5" y1="288" y2="288"/><rect fill="none" height="6" style="stroke:#C82930;stroke-width:1.0;" width="6" x="189.5" y="299.3047"/><text fill="#000000" font-family="sans-serif" font-size="14" lengthAdjust="spacing" textLength="70" x="201.5" y="306.5332">order_data</text><rect fill="none" height="6" style="stroke:#C82930;stroke-width:1.0;" width="6" x="189.5" y="316.9141"/><text fill="#000000" font-family="sans-serif" font-size="14" lengthAdjust="spacing" textLength="71" x="201.5" y="324.1426">fixing_rules</text><line style="stroke:#181818;stroke-width:0.5;" x1="182.5" x2="359.5" y1="331.2188" y2="331.2188"/><ellipse cx="192.5" cy="345.5234" fill="#84BE84" rx="3" ry="3" style="stroke:#038048;stroke-width:1.0;"/><text fill="#000000" font-family="sans-serif" font-size="14" lengthAdjust="spacing" textLength="132" x="201.5" y="349.752">load_order(order_id)</text><ellipse cx="192.5" cy="363.1328" fill="#84BE84" rx="3" ry="3" style="stroke:#038048;stroke-width:1.0;"/><text fill="#000000" font-family="sans-serif" font-size="14" lengthAdjust="spacing" textLength="123" x="201.5" y="367.3613">apply_fixing_rules()</text><ellipse cx="192.5" cy="380.7422" fill="#84BE84" rx="3" ry="3" style="stroke:#038048;stroke-width:1.0;"/><text fill="#000000" font-family="sans-serif" font-size="14" lengthAdjust="spacing" textLength="153" x="201.5" y="384.9707">generate_fixing_report()</text></g><!--class KonfirmatFixer--><g id="elem_KonfirmatFixer"><rect codeLine="21" fill="#F1F1F1" height="136.0469" id="KonfirmatFixer" rx="2.5" ry="2.5" style="stroke:#181818;stroke-width:0.5;" width="157" x="22.5" y="452"/><ellipse cx="52.8" cy="468" fill="#ADD1B2" rx="11" ry="11" style="stroke:#181818;stroke-width:1.0;"/><path d="M55.5656,463.875 Q55.7219,463.6563 55.9094,463.5469 Q56.0969,463.4375 56.3156,463.4375 Q56.6906,463.4375 56.925,463.6953 Q57.1594,463.9531 57.1594,464.5625 L57.1594,466.0156 Q57.1594,466.625 56.925,466.8906 Q56.6906,467.1563 56.3156,467.1563 Q55.9719,467.1563 55.7688,466.9531 Q55.5656,466.7656 55.4563,466.25 Q55.4094,465.8906 55.2219,465.7031 Q54.8938,465.3281 54.2844,465.1094 Q53.675,464.8906 53.05,464.8906 Q52.2844,464.8906 51.6516,465.2188 Q51.0188,465.5469 50.5266,466.2969 Q50.0344,467.0469 50.0344,468.0781 L50.0344,469.1719 Q50.0344,470.4063 50.925,471.2266 Q51.8156,472.0469 53.4094,472.0469 Q54.3469,472.0469 55.0031,471.7969 Q55.3938,471.6406 55.8156,471.2031 Q56.0813,470.9375 56.2297,470.8594 Q56.3781,470.7813 56.5813,470.7813 Q56.9094,470.7813 57.1672,471.0391 Q57.425,471.2969 57.425,471.6406 Q57.425,471.9844 57.0813,472.3906 Q56.5813,472.9688 55.7844,473.2969 Q54.7063,473.75 53.4094,473.75 Q51.8938,473.75 50.6906,473.125 Q49.7063,472.625 49.0188,471.5547 Q48.3313,470.4844 48.3313,469.2031 L48.3313,468.0469 Q48.3313,466.7188 48.9484,465.5703 Q49.5656,464.4219 50.6594,463.8047 Q51.7531,463.1875 52.9875,463.1875 Q53.7219,463.1875 54.3703,463.3516 Q55.0188,463.5156 55.5656,463.875 Z " fill="#000000"/><text fill="#000000" font-family="sans-serif" font-size="14" lengthAdjust="spacing" textLength="91" x="70.2" y="473.7285">KonfirmatFixer</text><line style="stroke:#181818;stroke-width:0.5;" x1="23.5" x2="178.5" y1="484" y2="484"/><rect fill="none" height="6" style="stroke:#C82930;stroke-width:1.0;" width="6" x="30.5" y="495.3047"/><text fill="#000000" font-family="sans-serif" font-size="14" lengthAdjust="spacing" textLength="93" x="42.5" y="502.5332">konfirmat_type</text><rect fill="none" height="6" style="stroke:#C82930;stroke-width:1.0;" width="6" x="30.5" y="512.9141"/><text fill="#000000" font-family="sans-serif" font-size="14" lengthAdjust="spacing" textLength="104" x="42.5" y="520.1426">position_params</text><line style="stroke:#181818;stroke-width:0.5;" x1="23.5" x2="178.5" y1="527.2188" y2="527.2188"/><ellipse cx="33.5" cy="541.5234" fill="#84BE84" rx="3" ry="3" style="stroke:#038048;stroke-width:1.0;"/><text fill="#000000" font-family="sans-serif" font-size="14" lengthAdjust="spacing" textLength="123" x="42.5" y="545.752">calculate_position()</text><ellipse cx="33.5" cy="559.1328" fill="#84BE84" rx="3" ry="3" style="stroke:#038048;stroke-width:1.0;"/><text fill="#000000" font-family="sans-serif" font-size="14" lengthAdjust="spacing" textLength="125" x="42.5" y="563.3613">validate_konfirmat()</text><ellipse cx="33.5" cy="576.7422" fill="#84BE84" rx="3" ry="3" style="stroke:#038048;stroke-width:1.0;"/><text fill="#000000" font-family="sans-serif" font-size="14" lengthAdjust="spacing" textLength="131" x="42.5" y="580.9707">apply_konfirmat_fix()</text></g><!--class ShkantFixer--><g id="elem_ShkantFixer"><rect codeLine="29" fill="#F1F1F1" height="136.0469" id="ShkantFixer" rx="2.5" ry="2.5" style="stroke:#181818;stroke-width:0.5;" width="149" x="214.5" y="452"/><ellipse cx="248.4" cy="468" fill="#ADD1B2" rx="11" ry="11" style="stroke:#181818;stroke-width:1.0;"/><path d="M251.1656,463.875 Q251.3219,463.6563 251.5094,463.5469 Q251.6969,463.4375 251.9156,463.4375 Q252.2906,463.4375 252.525,463.6953 Q252.7594,463.9531 252.7594,464.5625 L252.7594,466.0156 Q252.7594,466.625 252.525,466.8906 Q252.2906,467.1563 251.9156,467.1563 Q251.5719,467.1563 251.3688,466.9531 Q251.1656,466.7656 251.0563,466.25 Q251.0094,465.8906 250.8219,465.7031 Q250.4938,465.3281 249.8844,465.1094 Q249.275,464.8906 248.65,464.8906 Q247.8844,464.8906 247.2516,465.2188 Q246.6188,465.5469 246.1266,466.2969 Q245.6344,467.0469 245.6344,468.0781 L245.6344,469.1719 Q245.6344,470.4063 246.525,471.2266 Q247.4156,472.0469 249.0094,472.0469 Q249.9469,472.0469 250.6031,471.7969 Q250.9938,471.6406 251.4156,471.2031 Q251.6813,470.9375 251.8297,470.8594 Q251.9781,470.7813 252.1813,470.7813 Q252.5094,470.7813 252.7672,471.0391 Q253.025,471.2969 253.025,471.6406 Q253.025,471.9844 252.6813,472.3906 Q252.1813,472.9688 251.3844,473.2969 Q250.3063,473.75 249.0094,473.75 Q247.4938,473.75 246.2906,473.125 Q245.3063,472.625 244.6188,471.5547 Q243.9313,470.4844 243.9313,469.2031 L243.9313,468.0469 Q243.9313,466.7188 244.5484,465.5703 Q245.1656,464.4219 246.2594,463.8047 Q247.3531,463.1875 248.5875,463.1875 Q249.3219,463.1875 249.9703,463.3516 Q250.6188,463.5156 251.1656,463.875 Z " fill="#000000"/><text fill="#000000" font-family="sans-serif" font-size="14" lengthAdjust="spacing" textLength="75" x="266.6" y="473.7285">ShkantFixer</text><line style="stroke:#181818;stroke-width:0.5;" x1="215.5" x2="362.5" y1="484" y2="484"/><rect fill="none" height="6" style="stroke:#C82930;stroke-width:1.0;" width="6" x="222.5" y="495.3047"/><text fill="#000000" font-family="sans-serif" font-size="14" lengthAdjust="spacing" textLength="77" x="234.5" y="502.5332">shkant_type</text><rect fill="none" height="6" style="stroke:#C82930;stroke-width:1.0;" width="6" x="222.5" y="512.9141"/><text fill="#000000" font-family="sans-serif" font-size="14" lengthAdjust="spacing" textLength="104" x="234.5" y="520.1426">position_params</text><line style="stroke:#181818;stroke-width:0.5;" x1="215.5" x2="362.5" y1="527.2188" y2="527.2188"/><ellipse cx="225.5" cy="541.5234" fill="#84BE84" rx="3" ry="3" style="stroke:#038048;stroke-width:1.0;"/><text fill="#000000" font-family="sans-serif" font-size="14" lengthAdjust="spacing" textLength="123" x="234.5" y="545.752">calculate_position()</text><ellipse cx="225.5" cy="559.1328" fill="#84BE84" rx="3" ry="3" style="stroke:#038048;stroke-width:1.0;"/><text fill="#000000" font-family="sans-serif" font-size="14" lengthAdjust="spacing" textLength="109" x="234.5" y="563.3613">validate_shkant()</text><ellipse cx="225.5" cy="576.7422" fill="#84BE84" rx="3" ry="3" style="stroke:#038048;stroke-width:1.0;"/><text fill="#000000" font-family="sans-serif" font-size="14" lengthAdjust="spacing" textLength="115" x="234.5" y="580.9707">apply_shkant_fix()</text></g><g id="elem_GMN10"><path d="M397,89.5 L397,115 L361.57,119 L397,123 L397,148.5547 A0,0 0 0 0 397,148.5547 L669,148.5547 A0,0 0 0 0 669,148.5547 L669,99.5 L659,89.5 L397,89.5 A0,0 0 0 0 397,89.5 " fill="#FEFFDD" style="stroke:#181818;stroke-width:0.5;"/><path d="M659,89.5 L659,99.5 L669,99.5 L659,89.5 " fill="#FEFFDD" style="stroke:#181818;stroke-width:0.5;"/><text fill="#000000" font-family="sans-serif" font-size="13" lengthAdjust="spacing" textLength="209" x="403" y="107.9951">&#1054;&#1089;&#1085;&#1086;&#1074;&#1085;&#1086;&#1081; &#1089;&#1082;&#1088;&#1080;&#1087;&#1090; &#1076;&#1083;&#1103; &#1080;&#1089;&#1087;&#1088;&#1072;&#1074;&#1083;&#1077;&#1085;&#1080;&#1103;</text><text fill="#000000" font-family="sans-serif" font-size="13" lengthAdjust="spacing" textLength="251" x="403" y="124.3467">&#1087;&#1086;&#1079;&#1080;&#1094;&#1080;&#1081; &#1082;&#1088;&#1077;&#1087;&#1077;&#1078;&#1072; &#1090;&#1080;&#1087;&#1072; &#1082;&#1086;&#1085;&#1092;&#1080;&#1088;&#1084;&#1072;&#1090; &#1080; &#1096;&#1082;&#1072;&#1085;&#1090;</text><text fill="#000000" font-family="sans-serif" font-size="13" lengthAdjust="spacing" textLength="105" x="403" y="140.6982">&#1074; &#1079;&#1072;&#1082;&#1072;&#1079;&#1072;&#1093; &#1084;&#1077;&#1073;&#1077;&#1083;&#1080;</text></g><g id="elem_GMN13"><path d="M398.5,490.5 L398.5,549.5547 L641.5,549.5547 L641.5,500.5 L631.5,490.5 L398.5,490.5 " fill="#FEFFDD" style="stroke:#181818;stroke-width:0.5;"/><path d="M631.5,490.5 L631.5,500.5 L641.5,500.5 L631.5,490.5 " fill="#FEFFDD" style="stroke:#181818;stroke-width:1.0;"/><text fill="#000000" font-family="sans-serif" font-size="13" lengthAdjust="spacing" textLength="222" x="404.5" y="508.9951">&#1054;&#1073;&#1088;&#1072;&#1073;&#1086;&#1090;&#1095;&#1080;&#1082; &#1082;&#1088;&#1077;&#1087;&#1077;&#1078;&#1072; &#1090;&#1080;&#1087;&#1072; &#1082;&#1086;&#1085;&#1092;&#1080;&#1088;&#1084;&#1072;&#1090;</text><text fill="#000000" font-family="sans-serif" font-size="13" lengthAdjust="spacing" textLength="172" x="404.5" y="525.3467">&#1042;&#1099;&#1087;&#1086;&#1083;&#1085;&#1103;&#1077;&#1090; &#1088;&#1072;&#1089;&#1095;&#1077;&#1090; &#1087;&#1086;&#1079;&#1080;&#1094;&#1080;&#1081; &#1080;</text><text fill="#000000" font-family="sans-serif" font-size="13" lengthAdjust="spacing" textLength="121" x="404.5" y="541.6982">&#1074;&#1072;&#1083;&#1080;&#1076;&#1072;&#1094;&#1080;&#1102; &#1082;&#1088;&#1077;&#1087;&#1077;&#1078;&#1072;</text></g><g id="elem_GMN16"><path d="M676.5,490.5 L676.5,549.5547 L891.5,549.5547 L891.5,500.5 L881.5,490.5 L676.5,490.5 " fill="#FEFFDD" style="stroke:#181818;stroke-width:0.5;"/><path d="M881.5,490.5 L881.5,500.5 L891.5,500.5 L881.5,490.5 " fill="#FEFFDD" style="stroke:#181818;stroke-width:1.0;"/><text fill="#000000" font-family="sans-serif" font-size="13" lengthAdjust="spacing" textLength="194" x="682.5" y="508.9951">&#1054;&#1073;&#1088;&#1072;&#1073;&#1086;&#1090;&#1095;&#1080;&#1082; &#1082;&#1088;&#1077;&#1087;&#1077;&#1078;&#1072; &#1090;&#1080;&#1087;&#1072; &#1096;&#1082;&#1072;&#1085;&#1090;</text><text fill="#000000" font-family="sans-serif" font-size="13" lengthAdjust="spacing" textLength="172" x="682.5" y="525.3467">&#1042;&#1099;&#1087;&#1086;&#1083;&#1085;&#1103;&#1077;&#1090; &#1088;&#1072;&#1089;&#1095;&#1077;&#1090; &#1087;&#1086;&#1079;&#1080;&#1094;&#1080;&#1081; &#1080;</text><text fill="#000000" font-family="sans-serif" font-size="13" lengthAdjust="spacing" textLength="121" x="682.5" y="541.6982">&#1074;&#1072;&#1083;&#1080;&#1076;&#1072;&#1094;&#1080;&#1102; &#1082;&#1088;&#1077;&#1087;&#1077;&#1078;&#1072;</text></g><!--link FixKonfirmatSkant2 to OrderFixingProcessor--><g id="link_FixKonfirmatSkant2_OrderFixingProcessor"><path codeLine="37" d="M271,196.17 C271,215.74 271,230.66 271,249.75 " fill="none" id="FixKonfirmatSkant2-to-OrderFixingProcessor" style="stroke:#181818;stroke-width:1.0;"/><polygon fill="#181818" points="271,255.75,275,246.75,271,250.75,267,246.75,271,255.75" style="stroke:#181818;stroke-width:1.0;"/></g><!--link OrderFixingProcessor to KonfirmatFixer--><g id="link_OrderFixingProcessor_KonfirmatFixer"><path codeLine="38" d="M212.26,392.04 C195.27,411.42 180.6853,428.0683 163.6953,447.4483 " fill="none" id="OrderFixingProcessor-to-KonfirmatFixer" style="stroke:#181818;stroke-width:1.0;"/><polygon fill="#181818" points="159.74,451.96,168.6808,447.8293,163.0361,448.2002,162.6652,442.5556,159.74,451.96" style="stroke:#181818;stroke-width:1.0;"/></g><!--link OrderFixingProcessor to ShkantFixer--><g id="link_OrderFixingProcessor_ShkantFixer"><path codeLine="39" d="M277.22,392.04 C279.02,411.42 280.4251,426.6057 282.2251,445.9857 " fill="none" id="OrderFixingProcessor-to-ShkantFixer" style="stroke:#181818;stroke-width:1.0;"/><polygon fill="#181818" points="282.78,451.96,285.9305,442.6286,282.3176,446.9814,277.9648,443.3685,282.78,451.96" style="stroke:#181818;stroke-width:1.0;"/></g><!--link KonfirmatFixer to GMN13--><g id="link_KonfirmatFixer_GMN13"><path d="M164.46,451.77 C179.57,439.59 196.57,428.67 214.5,422 C276.15,399.07 299.25,403.93 362.5,422 C408.95,435.27 455.04,466.64 485.24,490.33 " fill="none" id="KonfirmatFixer-GMN13" style="stroke:#181818;stroke-width:1.0;stroke-dasharray:7.0,7.0;"/></g><!--link ShkantFixer to GMN16--><g id="link_ShkantFixer_GMN16"><path d="M349.9,451.8 C364.5,439.62 380.98,428.69 398.5,422 C499.38,383.45 538.36,389.96 641.5,422 C684.51,435.36 726.04,466.71 753.06,490.38 " fill="none" id="ShkantFixer-GMN16" style="stroke:#181818;stroke-width:1.0;stroke-dasharray:7.0,7.0;"/></g><!--SRC=[jPFDQjj04CVlUeebbxeKzz07w36NjZGGUXQBj7OMozfbLoun9P2OVa6XWJv0da5sgrQna_WLPj-eiwiFIvOQ2A4OoTxv-CzlPZrFoBithmdyWXnI-6dEyNs3dzIQDkQIZFYfFn7nYAifJNmzeN7ouhcSUvwamOIE6Jd02A52flG1-U0H4aHKQtB8JrzLMSSkoJa9UJQbF1uyBNvB9GAcjU_o1-xjyx1qjYjBeNd2HQm73RS-iT9TttiQyP0cpCSW7ezh-qmwQr6ewJl3fsP_Qzs7pdjK00fLqW-BL5IXnRaGyTKiOhge4GaQzZT4fOpcVZEZuXgpcAaThw-O52hfajKZHJfMC-s6bCmbAspLI7n95PsMQ06DWbbawrJkpi1ghK4BUbS22RjSn-uUMb3brJoUg11guvJYUomz_xdXy6NlTM9qxotR-FQGxujijEsTULui4aOK7vyaH8nwQ50Ahim5tC8ThDpxck1nZKkNmzOigfM37ArRjuehs426eJcQRVeMa_xWwJDcN1ENcg4nWz-uiMPXTUpghZ7irdp4m7ExorOw9-OhsbEqBwpIYg1GwYpuRJuH3CnWYSy6Se_58R7jx3VLcGrSmTAHBk7EBCmN95W_WCig_33VN5yRT5r2Xh1Mq5oWc3tizvoxGQom98BYn5BhCD_tYlwpW-QTFH2_FS3_ZFqN]--></g></svg>